  0
SECTION
  2
HEADER
  9
$ACADVER
  1
AC1014
  9
$HANDSEED
  5
FFFF
  9
$INSUNITS
 70
     4
  9
$MEASUREMENT
 70
     1
  0
ENDSEC
  0
SECTION
  2
TABLES
  0
TABLE
  2
VPORT
  5
8
330
0
100
AcDbSymbolTable
 70
     4
  0
VPORT
  5
2E
330
8
100
AcDbSymbolTableRecord
100
AcDbViewportTableRecord
  2
*ACTIVE
 70
     0
 10
0.0
 20
0.0
 11
1.0
 21
1.0
 12
210.0
 22
148.5
 13
0.0
 23
0.0
 14
10.0
 24
10.0
 15
10.0
 25
10.0
 16
0.0
 26
0.0
 36
1.0
 17
0.0
 27
0.0
 37
0.0
 40
341.0
 41
1.24
 42
50.0
 43
0.0
 44
0.0
 50
0.0
 51
0.0
 71
     0
 72
   100
 73
     1
 74
     3
 75
     0
 76
     0
 77
     0
 78
     0
  0
ENDTAB
  0
TABLE
  2
LTYPE
  5
5
330
0
100
AcDbSymbolTable
 70
     1
  0
LTYPE
  5
14
330
5
100
AcDbSymbolTableRecord
100
AcDbLinetypeTableRecord
  2
BYBLOCK
 70
     0
  3

 72
    65
 73
     0
 40
0.0
  0
LTYPE
  5
15
330
5
100
AcDbSymbolTableRecord
100
AcDbLinetypeTableRecord
  2
BYLAYER
 70
     0
  3

 72
    65
 73
     0
 40
0.0
  0
LTYPE
  5
16
330
5
100
AcDbSymbolTableRecord
100
AcDbLinetypeTableRecord
  2
CONTINUOUS
 70
     0
  3
Solid line
 72
    65
 73
     0
 40
0.0
  0
ENDTAB
  0
TABLE
  2
LAYER
  5
2
100
AcDbSymbolTable
 70
1
  0
LAYER
  5
50
100
AcDbSymbolTableRecord
100
AcDbLayerTableRecord
  2
0
 70
0
  6
CONTINUOUS
  0
ENDTAB
  0
TABLE
  2
STYLE
  5
3
330
0
100
AcDbSymbolTable
 70
     1
  0
STYLE
  5
11
330
3
100
AcDbSymbolTableRecord
100
AcDbTextStyleTableRecord
  2
STANDARD
 70
     0
 40
0.0
 41
1.0
 50
0.0
 71
     0
 42
2.5
  3
txt
  4

  0
ENDTAB
  0
TABLE
  2
VIEW
  5
6
330
0
100
AcDbSymbolTable
 70
     0
  0
ENDTAB
  0
TABLE
  2
UCS
  5
7
330
0
100
AcDbSymbolTable
 70
     0
  0
ENDTAB
  0
TABLE
  2
APPID
  5
9
330
0
100
AcDbSymbolTable
 70
     2
  0
APPID
  5
12
330
9
100
AcDbSymbolTableRecord
100
AcDbRegAppTableRecord
  2
ACAD
 70
     0
  0
ENDTAB
  0
TABLE
  2
DIMSTYLE
  5
A
330
0
100
AcDbSymbolTable
 70
     1
  0
DIMSTYLE
105
27
330
A
100
AcDbSymbolTableRecord
100
AcDbDimStyleTableRecord
  2
ISO-25
 70
     0
  3

  4

  5

  6

  7

 40
1.0
 41
2.5
 42
0.625
 43
3.75
 44
1.25
 45
0.0
 46
0.0
 47
0.0
 48
0.0
140
2.5
141
2.5
142
0.0
143
0.03937007874016
144
1.0
145
0.0
146
1.0
147
0.625
 71
     0
 72
     0
 73
     0
 74
     0
 75
     0
 76
     0
 77
     1
 78
     8
170
     0
171
     3
172
     1
173
     0
174
     0
175
     0
176
     0
177
     0
178
     0
270
     2
271
     2
272
     2
273
     2
274
     3
340
11
275
     0
280
     0
281
     0
282
     0
283
     0
284
     8
285
     0
286
     0
287
     3
288
     0
  0
ENDTAB
  0
TABLE
  2
BLOCK_RECORD
  5
1
330
0
100
AcDbSymbolTable
 70
     1
  0
BLOCK_RECORD
  5
1F
330
1
100
AcDbSymbolTableRecord
100
AcDbBlockTableRecord
  2
*MODEL_SPACE
  0
BLOCK_RECORD
  5
1B
330
1
100
AcDbSymbolTableRecord
100
AcDbBlockTableRecord
  2
*PAPER_SPACE
  0
ENDTAB
  0
ENDSEC
  0
SECTION
  2
BLOCKS
  0
BLOCK
  5
20
330
1F
100
AcDbEntity
  8
0
100
AcDbBlockBegin
  2
*MODEL_SPACE
 70
     0
 10
0.0
 20
0.0
 30
0.0
  3
*MODEL_SPACE
  1

  0
ENDBLK
  5
21
330
1F
100
AcDbEntity
  8
0
100
AcDbBlockEnd
  0
BLOCK
  5
1C
330
1B
100
AcDbEntity
 67
     1
  8
0
100
AcDbBlockBegin
  2
*PAPER_SPACE
  1

  0
ENDBLK
  5
1D
330
1B
100
AcDbEntity
 67
     1
  8
0
100
AcDbBlockEnd
  0
ENDSEC
  0
SECTION
  2
ENTITIES
  0
SPLINE
  5
100
100
AcDbEntity
  8
0
 62
7
100
AcDbSpline
 70
8
 71
3
 72
8
 73
4
 74
0
 40
0
 40
0
 40
0
 40
0
 40
1
 40
1
 40
1
 40
1
 10
197.792010
 20
58.118300
 30
0.0
 10
196.659516
 20
58.118300
 30
0.0
 10
195.638534
 20
57.436102
 30
0.0
 10
195.205147
 20
56.389814
 30
0.0
  0
SPLINE
  5
101
100
AcDbEntity
  8
0
 62
7
100
AcDbSpline
 70
8
 71
3
 72
8
 73
4
 74
0
 40
0
 40
0
 40
0
 40
0
 40
1
 40
1
 40
1
 40
1
 10
195.205147
 20
56.389814
 30
0.0
 10
194.771761
 20
55.343525
 30
0.0
 10
195.011317
 20
54.139195
 30
0.0
 10
195.812111
 20
53.338401
 30
0.0
  0
SPLINE
  5
102
100
AcDbEntity
  8
0
 62
7
100
AcDbSpline
 70
8
 71
3
 72
8
 73
4
 74
0
 40
0
 40
0
 40
0
 40
0
 40
1
 40
1
 40
1
 40
1
 10
195.812111
 20
53.338401
 30
0.0
 10
196.612905
 20
52.537607
 30
0.0
 10
197.817235
 20
52.298051
 30
0.0
 10
198.863524
 20
52.731437
 30
0.0
  0
SPLINE
  5
103
100
AcDbEntity
  8
0
 62
7
100
AcDbSpline
 70
8
 71
3
 72
8
 73
4
 74
0
 40
0
 40
0
 40
0
 40
0
 40
1
 40
1
 40
1
 40
1
 10
198.863524
 20
52.731437
 30
0.0
 10
199.909812
 20
53.164824
 30
0.0
 10
200.592010
 20
54.185806
 30
0.0
 10
200.592010
 20
55.318300
 30
0.0
  0
SPLINE
  5
104
100
AcDbEntity
  8
0
 62
7
100
AcDbSpline
 70
8
 71
3
 72
8
 73
4
 74
0
 40
0
 40
0
 40
0
 40
0
 40
1
 40
1
 40
1
 40
1
 10
200.592010
 20
55.318300
 30
0.0
 10
200.592010
 20
56.060906
 30
0.0
 10
200.297011
 20
56.773097
 30
0.0
 10
199.771909
 20
57.298199
 30
0.0
  0
SPLINE
  5
105
100
AcDbEntity
  8
0
 62
7
100
AcDbSpline
 70
8
 71
3
 72
8
 73
4
 74
0
 40
0
 40
0
 40
0
 40
0
 40
1
 40
1
 40
1
 40
1
 10
199.771909
 20
57.298199
 30
0.0
 10
199.246807
 20
57.823301
 30
0.0
 10
198.534616
 20
58.118300
 30
0.0
 10
197.792010
 20
58.118300
 30
0.0
  0
SPLINE
  5
106
100
AcDbEntity
  8
0
 62
7
100
AcDbSpline
 70
8
 71
3
 72
8
 73
4
 74
0
 40
0
 40
0
 40
0
 40
0
 40
1
 40
1
 40
1
 40
1
 10
245.157000
 20
43.901102
 30
0.0
 10
243.610603
 20
43.901102
 30
0.0
 10
242.357000
 20
42.647499
 30
0.0
 10
242.357000
 20
41.101102
 30
0.0
  0
SPLINE
  5
107
100
AcDbEntity
  8
0
 62
7
100
AcDbSpline
 70
8
 71
3
 72
8
 73
4
 74
0
 40
0
 40
0
 40
0
 40
0
 40
1
 40
1
 40
1
 40
1
 10
242.357000
 20
41.101102
 30
0.0
 10
242.357000
 20
39.554705
 30
0.0
 10
243.610603
 20
38.301102
 30
0.0
 10
245.157000
 20
38.301102
 30
0.0
  0
SPLINE
  5
108
100
AcDbEntity
  8
0
 62
7
100
AcDbSpline
 70
8
 71
3
 72
8
 73
4
 74
0
 40
0
 40
0
 40
0
 40
0
 40
1
 40
1
 40
1
 40
1
 10
245.157000
 20
38.301102
 30
0.0
 10
246.703397
 20
38.301102
 30
0.0
 10
247.957000
 20
39.554705
 30
0.0
 10
247.957000
 20
41.101102
 30
0.0
  0
SPLINE
  5
109
100
AcDbEntity
  8
0
 62
7
100
AcDbSpline
 70
8
 71
3
 72
8
 73
4
 74
0
 40
0
 40
0
 40
0
 40
0
 40
1
 40
1
 40
1
 40
1
 10
247.957000
 20
41.101102
 30
0.0
 10
247.957000
 20
41.843708
 30
0.0
 10
247.662001
 20
42.555899
 30
0.0
 10
247.136899
 20
43.081001
 30
0.0
  0
SPLINE
  5
10a
100
AcDbEntity
  8
0
 62
7
100
AcDbSpline
 70
8
 71
3
 72
8
 73
4
 74
0
 40
0
 40
0
 40
0
 40
0
 40
1
 40
1
 40
1
 40
1
 10
247.136899
 20
43.081001
 30
0.0
 10
246.611797
 20
43.606103
 30
0.0
 10
245.899606
 20
43.901102
 30
0.0
 10
245.157000
 20
43.901102
 30
0.0
  0
LWPOLYLINE
  5
10b
100
AcDbEntity
  8
0
 62
7
100
AcDbPolyline
 90
1
 70
1
 10
197.792010
 20
58.118300
 30
0.0
  0
SPLINE
  5
10c
100
AcDbEntity
  8
0
 62
7
100
AcDbSpline
 70
8
 71
3
 72
8
 73
4
 74
0
 40
0
 40
0
 40
0
 40
0
 40
1
 40
1
 40
1
 40
1
 10
221.187000
 20
113.217100
 30
0.0
 10
219.640603
 20
113.217100
 30
0.0
 10
218.387000
 20
111.963497
 30
0.0
 10
218.387000
 20
110.417100
 30
0.0
  0
SPLINE
  5
10d
100
AcDbEntity
  8
0
 62
7
100
AcDbSpline
 70
8
 71
3
 72
8
 73
4
 74
0
 40
0
 40
0
 40
0
 40
0
 40
1
 40
1
 40
1
 40
1
 10
218.387000
 20
110.417100
 30
0.0
 10
218.387000
 20
108.870703
 30
0.0
 10
219.640603
 20
107.617100
 30
0.0
 10
221.187000
 20
107.617100
 30
0.0
  0
SPLINE
  5
10e
100
AcDbEntity
  8
0
 62
7
100
AcDbSpline
 70
8
 71
3
 72
8
 73
4
 74
0
 40
0
 40
0
 40
0
 40
0
 40
1
 40
1
 40
1
 40
1
 10
221.187000
 20
107.617100
 30
0.0
 10
222.733397
 20
107.617100
 30
0.0
 10
223.987000
 20
108.870703
 30
0.0
 10
223.987000
 20
110.417100
 30
0.0
  0
SPLINE
  5
10f
100
AcDbEntity
  8
0
 62
7
100
AcDbSpline
 70
8
 71
3
 72
8
 73
4
 74
0
 40
0
 40
0
 40
0
 40
0
 40
1
 40
1
 40
1
 40
1
 10
223.987000
 20
110.417100
 30
0.0
 10
223.987000
 20
111.159706
 30
0.0
 10
223.692001
 20
111.871897
 30
0.0
 10
223.166899
 20
112.396999
 30
0.0
  0
SPLINE
  5
110
100
AcDbEntity
  8
0
 62
7
100
AcDbSpline
 70
8
 71
3
 72
8
 73
4
 74
0
 40
0
 40
0
 40
0
 40
0
 40
1
 40
1
 40
1
 40
1
 10
223.166899
 20
112.396999
 30
0.0
 10
222.641797
 20
112.922101
 30
0.0
 10
221.929606
 20
113.217100
 30
0.0
 10
221.187000
 20
113.217100
 30
0.0
  0
LWPOLYLINE
  5
111
100
AcDbEntity
  8
0
 62
7
100
AcDbPolyline
 90
1
 70
1
 10
245.157000
 20
43.901102
 30
0.0
  0
SPLINE
  5
112
100
AcDbEntity
  8
0
 62
7
100
AcDbSpline
 70
8
 71
3
 72
8
 73
4
 74
0
 40
0
 40
0
 40
0
 40
0
 40
1
 40
1
 40
1
 40
1
 10
139.957000
 20
52.901102
 30
0.0
 10
138.824506
 20
52.901102
 30
0.0
 10
137.803524
 20
52.218904
 30
0.0
 10
137.370137
 20
51.172616
 30
0.0
  0
SPLINE
  5
113
100
AcDbEntity
  8
0
 62
7
100
AcDbSpline
 70
8
 71
3
 72
8
 73
4
 74
0
 40
0
 40
0
 40
0
 40
0
 40
1
 40
1
 40
1
 40
1
 10
137.370137
 20
51.172616
 30
0.0
 10
136.936751
 20
50.126327
 30
0.0
 10
137.176307
 20
48.921997
 30
0.0
 10
137.977101
 20
48.121203
 30
0.0
  0
SPLINE
  5
114
100
AcDbEntity
  8
0
 62
7
100
AcDbSpline
 70
8
 71
3
 72
8
 73
4
 74
0
 40
0
 40
0
 40
0
 40
0
 40
1
 40
1
 40
1
 40
1
 10
137.977101
 20
48.121203
 30
0.0
 10
138.777895
 20
47.320409
 30
0.0
 10
139.982225
 20
47.080853
 30
0.0
 10
141.028514
 20
47.514239
 30
0.0
  0
SPLINE
  5
115
100
AcDbEntity
  8
0
 62
7
100
AcDbSpline
 70
8
 71
3
 72
8
 73
4
 74
0
 40
0
 40
0
 40
0
 40
0
 40
1
 40
1
 40
1
 40
1
 10
141.028514
 20
47.514239
 30
0.0
 10
142.074802
 20
47.947626
 30
0.0
 10
142.757000
 20
48.968608
 30
0.0
 10
142.757000
 20
50.101102
 30
0.0
  0
SPLINE
  5
116
100
AcDbEntity
  8
0
 62
7
100
AcDbSpline
 70
8
 71
3
 72
8
 73
4
 74
0
 40
0
 40
0
 40
0
 40
0
 40
1
 40
1
 40
1
 40
1
 10
142.757000
 20
50.101102
 30
0.0
 10
142.757000
 20
50.843708
 30
0.0
 10
142.462001
 20
51.555899
 30
0.0
 10
141.936899
 20
52.081001
 30
0.0
  0
SPLINE
  5
117
100
AcDbEntity
  8
0
 62
7
100
AcDbSpline
 70
8
 71
3
 72
8
 73
4
 74
0
 40
0
 40
0
 40
0
 40
0
 40
1
 40
1
 40
1
 40
1
 10
141.936899
 20
52.081001
 30
0.0
 10
141.411797
 20
52.606103
 30
0.0
 10
140.699606
 20
52.901102
 30
0.0
 10
139.957000
 20
52.901102
 30
0.0
  0
LWPOLYLINE
  5
118
100
AcDbEntity
  8
0
 62
7
100
AcDbPolyline
 90
1
 70
1
 10
221.187000
 20
113.217100
 30
0.0
  0
SPLINE
  5
119
100
AcDbEntity
  8
0
 62
7
100
AcDbSpline
 70
8
 71
3
 72
8
 73
4
 74
0
 40
0
 40
0
 40
0
 40
0
 40
1
 40
1
 40
1
 40
1
 10
154.412200
 20
114.101100
 30
0.0
 10
152.865803
 20
114.101100
 30
0.0
 10
151.612200
 20
112.847497
 30
0.0
 10
151.612200
 20
111.301100
 30
0.0
  0
SPLINE
  5
11a
100
AcDbEntity
  8
0
 62
7
100
AcDbSpline
 70
8
 71
3
 72
8
 73
4
 74
0
 40
0
 40
0
 40
0
 40
0
 40
1
 40
1
 40
1
 40
1
 10
151.612200
 20
111.301100
 30
0.0
 10
151.612200
 20
109.754703
 30
0.0
 10
152.865803
 20
108.501100
 30
0.0
 10
154.412200
 20
108.501100
 30
0.0
  0
SPLINE
  5
11b
100
AcDbEntity
  8
0
 62
7
100
AcDbSpline
 70
8
 71
3
 72
8
 73
4
 74
0
 40
0
 40
0
 40
0
 40
0
 40
1
 40
1
 40
1
 40
1
 10
154.412200
 20
108.501100
 30
0.0
 10
155.958597
 20
108.501100
 30
0.0
 10
157.212200
 20
109.754703
 30
0.0
 10
157.212200
 20
111.301100
 30
0.0
  0
SPLINE
  5
11c
100
AcDbEntity
  8
0
 62
7
100
AcDbSpline
 70
8
 71
3
 72
8
 73
4
 74
0
 40
0
 40
0
 40
0
 40
0
 40
1
 40
1
 40
1
 40
1
 10
157.212200
 20
111.301100
 30
0.0
 10
157.212200
 20
112.043706
 30
0.0
 10
156.917201
 20
112.755897
 30
0.0
 10
156.392099
 20
113.280999
 30
0.0
  0
SPLINE
  5
11d
100
AcDbEntity
  8
0
 62
7
100
AcDbSpline
 70
8
 71
3
 72
8
 73
4
 74
0
 40
0
 40
0
 40
0
 40
0
 40
1
 40
1
 40
1
 40
1
 10
156.392099
 20
113.280999
 30
0.0
 10
155.866997
 20
113.806101
 30
0.0
 10
155.154806
 20
114.101100
 30
0.0
 10
154.412200
 20
114.101100
 30
0.0
  0
LWPOLYLINE
  5
11e
100
AcDbEntity
  8
0
 62
7
100
AcDbPolyline
 90
1
 70
1
 10
139.957000
 20
52.901102
 30
0.0
  0
LWPOLYLINE
  5
11f
100
AcDbEntity
  8
0
 62
7
100
AcDbPolyline
 90
1
 70
1
 10
154.412200
 20
114.101100
 30
0.0
  0
LWPOLYLINE
  5
120
100
AcDbEntity
  8
0
 62
7
100
AcDbPolyline
 90
2
 70
0
 10
203.686000
 20
116.731100
 30
0.0
 10
203.677000
 20
115.838600
 30
0.0
  0
LWPOLYLINE
  5
121
100
AcDbEntity
  8
0
 62
7
100
AcDbPolyline
 90
2
 70
0
 10
248.726900
 20
89.794000
 30
0.0
 10
248.703300
 20
61.786800
 30
0.0
  0
LWPOLYLINE
  5
122
100
AcDbEntity
  8
0
 62
7
100
AcDbPolyline
 90
2
 70
0
 10
185.180900
 20
117.140600
 30
0.0
 10
184.946000
 20
116.901100
 30
0.0
  0
LWPOLYLINE
  5
123
100
AcDbEntity
  8
0
 62
7
100
AcDbPolyline
 90
2
 70
0
 10
136.070000
 20
87.957300
 30
0.0
 10
136.044700
 20
49.806500
 30
0.0
  0
LWPOLYLINE
  5
124
100
AcDbEntity
  8
0
 62
7
100
AcDbPolyline
 90
2
 70
0
 10
248.703300
 20
61.786800
 30
0.0
 10
259.026000
 20
59.951100
 30
0.0
  0
LWPOLYLINE
  5
125
100
AcDbEntity
  8
0
 62
7
100
AcDbPolyline
 90
2
 70
0
 10
147.931800
 20
38.010900
 30
0.0
 10
147.939800
 20
43.540600
 30
0.0
  0
LWPOLYLINE
  5
126
100
AcDbEntity
  8
0
 62
7
100
AcDbPolyline
 90
2
 70
0
 10
147.754000
 20
0.035200
 30
0.0
 10
134.353900
 20
13.432200
 30
0.0
  0
LWPOLYLINE
  5
127
100
AcDbEntity
  8
0
 62
7
100
AcDbPolyline
 90
2
 70
0
 10
246.593300
 20
37.479600
 30
0.0
 10
221.744200
 20
37.487500
 30
0.0
  0
SPLINE
  5
128
100
AcDbEntity
  8
0
 62
7
100
AcDbSpline
 70
8
 71
3
 72
8
 73
4
 74
0
 40
0
 40
0
 40
0
 40
0
 40
1
 40
1
 40
1
 40
1
 10
203.676900
 20
115.838600
 30
0.0
 10
203.676900
 20
115.279471
 30
0.0
 10
203.899013
 20
114.743242
 30
0.0
 10
204.294377
 20
114.347877
 30
0.0
  0
SPLINE
  5
129
100
AcDbEntity
  8
0
 62
7
100
AcDbSpline
 70
8
 71
3
 72
8
 73
4
 74
0
 40
0
 40
0
 40
0
 40
0
 40
1
 40
1
 40
1
 40
1
 10
204.294377
 20
114.347877
 30
0.0
 10
204.689742
 20
113.952513
 30
0.0
 10
205.225971
 20
113.730400
 30
0.0
 10
205.785100
 20
113.730400
 30
0.0
  0
SPLINE
  5
12a
100
AcDbEntity
  8
0
 62
7
100
AcDbSpline
 70
8
 71
3
 72
8
 73
4
 74
0
 40
0
 40
0
 40
0
 40
0
 40
1
 40
1
 40
1
 40
1
 10
246.593300
 20
37.479600
 30
0.0
 10
247.152429
 20
37.479600
 30
0.0
 10
247.688658
 20
37.701713
 30
0.0
 10
248.084023
 20
38.097077
 30
0.0
  0
SPLINE
  5
12b
100
AcDbEntity
  8
0
 62
7
100
AcDbSpline
 70
8
 71
3
 72
8
 73
4
 74
0
 40
0
 40
0
 40
0
 40
0
 40
1
 40
1
 40
1
 40
1
 10
248.084023
 20
38.097077
 30
0.0
 10
248.479387
 20
38.492442
 30
0.0
 10
248.701500
 20
39.028671
 30
0.0
 10
248.701500
 20
39.587800
 30
0.0
  0
LWPOLYLINE
  5
12c
100
AcDbEntity
  8
0
 62
7
100
AcDbPolyline
 90
2
 70
0
 10
203.686000
 20
116.731100
 30
0.0
 10
203.328400
 20
117.140600
 30
0.0
  0
LWPOLYLINE
  5
12d
100
AcDbEntity
  8
0
 62
7
100
AcDbPolyline
 90
2
 70
0
 10
136.095400
 20
115.694100
 30
0.0
 10
184.939600
 20
115.719500
 30
0.0
  0
LWPOLYLINE
  5
12e
100
AcDbEntity
  8
0
 62
7
100
AcDbPolyline
 90
2
 70
0
 10
161.705000
 20
13.884700
 30
0.0
 10
147.754000
 20
0.035200
 30
0.0
  0
LWPOLYLINE
  5
12f
100
AcDbEntity
  8
0
 62
7
100
AcDbPolyline
 90
2
 70
0
 10
144.299600
 20
34.376000
 30
0.0
 10
147.931800
 20
38.010900
 30
0.0
  0
LWPOLYLINE
  5
130
100
AcDbEntity
  8
0
 62
7
100
AcDbPolyline
 90
2
 70
0
 10
187.547900
 20
45.293200
 30
0.0
 10
187.555900
 20
40.840300
 30
0.0
  0
SPLINE
  5
131
100
AcDbEntity
  8
0
 62
7
100
AcDbSpline
 70
8
 71
3
 72
8
 73
4
 74
0
 40
0
 40
0
 40
0
 40
0
 40
1
 40
1
 40
1
 40
1
 10
228.457700
 20
111.612600
 30
0.0
 10
228.457700
 20
112.171729
 30
0.0
 10
228.235587
 20
112.707958
 30
0.0
 10
227.840223
 20
113.103323
 30
0.0
  0
SPLINE
  5
132
100
AcDbEntity
  8
0
 62
7
100
AcDbSpline
 70
8
 71
3
 72
8
 73
4
 74
0
 40
0
 40
0
 40
0
 40
0
 40
1
 40
1
 40
1
 40
1
 10
227.840223
 20
113.103323
 30
0.0
 10
227.444858
 20
113.498687
 30
0.0
 10
226.908629
 20
113.720800
 30
0.0
 10
226.349500
 20
113.720800
 30
0.0
  0
LWPOLYLINE
  5
133
100
AcDbEntity
  8
0
 62
7
100
AcDbPolyline
 90
2
 70
0
 10
256.436000
 20
43.161100
 30
0.0
 10
255.906000
 20
42.751100
 30
0.0
  0
LWPOLYLINE
  5
134
100
AcDbEntity
  8
0
 62
7
100
AcDbPolyline
 90
2
 70
0
 10
184.939600
 20
115.719500
 30
0.0
 10
184.945600
 20
116.901100
 30
0.0
  0
LWPOLYLINE
  5
135
100
AcDbEntity
  8
0
 62
7
100
AcDbPolyline
 90
2
 70
0
 10
136.095400
 20
115.694100
 30
0.0
 10
136.070000
 20
87.957300
 30
0.0
  0
LWPOLYLINE
  5
136
100
AcDbEntity
  8
0
 62
7
100
AcDbPolyline
 90
2
 70
0
 10
187.555800
 20
40.840300
 30
0.0
 10
171.020400
 20
31.480400
 30
0.0
  0
LWPOLYLINE
  5
137
100
AcDbEntity
  8
0
 62
7
100
AcDbPolyline
 90
2
 70
0
 10
161.724000
 20
22.107800
 30
0.0
 10
161.705000
 20
13.884700
 30
0.0
  0
SPLINE
  5
138
100
AcDbEntity
  8
0
 62
7
100
AcDbSpline
 70
8
 71
3
 72
8
 73
4
 74
0
 40
0
 40
0
 40
0
 40
0
 40
1
 40
1
 40
1
 40
1
 10
189.656100
 20
47.401400
 30
0.0
 10
189.096971
 20
47.401400
 30
0.0
 10
188.560742
 20
47.179287
 30
0.0
 10
188.165377
 20
46.783923
 30
0.0
  0
SPLINE
  5
139
100
AcDbEntity
  8
0
 62
7
100
AcDbSpline
 70
8
 71
3
 72
8
 73
4
 74
0
 40
0
 40
0
 40
0
 40
0
 40
1
 40
1
 40
1
 40
1
 10
188.165377
 20
46.783923
 30
0.0
 10
187.770013
 20
46.388558
 30
0.0
 10
187.547900
 20
45.852329
 30
0.0
 10
187.547900
 20
45.293200
 30
0.0
  0
LWPOLYLINE
  5
13a
100
AcDbEntity
  8
0
 62
7
100
AcDbPolyline
 90
2
 70
0
 10
221.744200
 20
37.487500
 30
0.0
 10
212.193800
 20
47.393500
 30
0.0
  0
LWPOLYLINE
  5
13b
100
AcDbEntity
  8
0
 62
7
100
AcDbPolyline
 90
2
 70
0
 10
205.785100
 20
113.730400
 30
0.0
 10
226.349500
 20
113.720800
 30
0.0
  0
LWPOLYLINE
  5
13c
100
AcDbEntity
  8
0
 62
7
100
AcDbPolyline
 90
2
 70
0
 10
255.906000
 20
42.751100
 30
0.0
 10
248.696300
 20
44.017400
 30
0.0
  0
LWPOLYLINE
  5
13d
100
AcDbEntity
  8
0
 62
7
100
AcDbPolyline
 90
2
 70
0
 10
259.336000
 20
59.531100
 30
0.0
 10
256.436000
 20
43.161100
 30
0.0
  0
SPLINE
  5
13e
100
AcDbEntity
  8
0
 62
7
100
AcDbSpline
 70
8
 71
3
 72
8
 73
4
 74
0
 40
0
 40
0
 40
0
 40
0
 40
1
 40
1
 40
1
 40
1
 10
136.036700
 20
47.741200
 30
0.0
 10
136.036700
 20
47.182071
 30
0.0
 10
136.258813
 20
46.645842
 30
0.0
 10
136.654177
 20
46.250477
 30
0.0
  0
SPLINE
  5
13f
100
AcDbEntity
  8
0
 62
7
100
AcDbSpline
 70
8
 71
3
 72
8
 73
4
 74
0
 40
0
 40
0
 40
0
 40
0
 40
1
 40
1
 40
1
 40
1
 10
136.654177
 20
46.250477
 30
0.0
 10
137.049542
 20
45.855113
 30
0.0
 10
137.585771
 20
45.633000
 30
0.0
 10
138.144900
 20
45.633000
 30
0.0
  0
SPLINE
  5
140
100
AcDbEntity
  8
0
 62
7
100
AcDbSpline
 70
8
 71
3
 72
8
 73
4
 74
0
 40
0
 40
0
 40
0
 40
0
 40
1
 40
1
 40
1
 40
1
 10
228.441900
 20
94.020000
 30
0.0
 10
228.441900
 20
93.460871
 30
0.0
 10
228.664013
 20
92.924642
 30
0.0
 10
229.059377
 20
92.529277
 30
0.0
  0
SPLINE
  5
141
100
AcDbEntity
  8
0
 62
7
100
AcDbSpline
 70
8
 71
3
 72
8
 73
4
 74
0
 40
0
 40
0
 40
0
 40
0
 40
1
 40
1
 40
1
 40
1
 10
229.059377
 20
92.529277
 30
0.0
 10
229.454742
 20
92.133913
 30
0.0
 10
229.990971
 20
91.911800
 30
0.0
 10
230.550100
 20
91.911800
 30
0.0
  0
LWPOLYLINE
  5
142
100
AcDbEntity
  8
0
 62
7
100
AcDbPolyline
 90
2
 70
0
 10
259.026000
 20
59.951100
 30
0.0
 10
259.336000
 20
59.531100
 30
0.0
  0
LWPOLYLINE
  5
143
100
AcDbEntity
  8
0
 62
7
100
AcDbPolyline
 90
2
 70
0
 10
203.328400
 20
117.140600
 30
0.0
 10
185.180900
 20
117.140600
 30
0.0
  0
LWPOLYLINE
  5
144
100
AcDbEntity
  8
0
 62
7
100
AcDbPolyline
 90
2
 70
0
 10
134.353900
 20
13.432200
 30
0.0
 10
144.325000
 20
23.403200
 30
0.0
  0
LWPOLYLINE
  5
145
100
AcDbEntity
  8
0
 62
7
100
AcDbPolyline
 90
2
 70
0
 10
136.036700
 20
47.741200
 30
0.0
 10
136.044700
 20
49.806500
 30
0.0
  0
SPLINE
  5
146
100
AcDbEntity
  8
0
 62
7
100
AcDbSpline
 70
8
 71
3
 72
8
 73
4
 74
0
 40
0
 40
0
 40
0
 40
0
 40
1
 40
1
 40
1
 40
1
 10
147.939700
 20
43.540600
 30
0.0
 10
147.939700
 20
44.099729
 30
0.0
 10
147.717587
 20
44.635958
 30
0.0
 10
147.322223
 20
45.031323
 30
0.0
  0
SPLINE
  5
147
100
AcDbEntity
  8
0
 62
7
100
AcDbSpline
 70
8
 71
3
 72
8
 73
4
 74
0
 40
0
 40
0
 40
0
 40
0
 40
1
 40
1
 40
1
 40
1
 10
147.322223
 20
45.031323
 30
0.0
 10
146.926858
 20
45.426687
 30
0.0
 10
146.390629
 20
45.648800
 30
0.0
 10
145.831500
 20
45.648800
 30
0.0
  0
LWPOLYLINE
  5
148
100
AcDbEntity
  8
0
 62
7
100
AcDbPolyline
 90
2
 70
0
 10
171.020400
 20
31.480400
 30
0.0
 10
161.724000
 20
22.107800
 30
0.0
  0
LWPOLYLINE
  5
149
100
AcDbEntity
  8
0
 62
7
100
AcDbPolyline
 90
2
 70
0
 10
228.441900
 20
94.020000
 30
0.0
 10
228.457700
 20
111.612600
 30
0.0
  0
LWPOLYLINE
  5
14a
100
AcDbEntity
  8
0
 62
7
100
AcDbPolyline
 90
2
 70
0
 10
145.831500
 20
45.648800
 30
0.0
 10
138.144900
 20
45.633000
 30
0.0
  0
LWPOLYLINE
  5
14b
100
AcDbEntity
  8
0
 62
7
100
AcDbPolyline
 90
2
 70
0
 10
248.696300
 20
44.017400
 30
0.0
 10
248.701300
 20
39.587800
 30
0.0
  0
LWPOLYLINE
  5
14c
100
AcDbEntity
  8
0
 62
7
100
AcDbPolyline
 90
2
 70
0
 10
230.550100
 20
91.911800
 30
0.0
 10
246.618700
 20
91.902200
 30
0.0
  0
LWPOLYLINE
  5
14d
100
AcDbEntity
  8
0
 62
7
100
AcDbPolyline
 90
2
 70
0
 10
144.299600
 20
34.376000
 30
0.0
 10
144.325000
 20
23.403200
 30
0.0
  0
SPLINE
  5
14e
100
AcDbEntity
  8
0
 62
7
100
AcDbSpline
 70
8
 71
3
 72
8
 73
4
 74
0
 40
0
 40
0
 40
0
 40
0
 40
1
 40
1
 40
1
 40
1
 10
248.726900
 20
89.794000
 30
0.0
 10
248.726900
 20
90.353129
 30
0.0
 10
248.504787
 20
90.889358
 30
0.0
 10
248.109423
 20
91.284723
 30
0.0
  0
SPLINE
  5
14f
100
AcDbEntity
  8
0
 62
7
100
AcDbSpline
 70
8
 71
3
 72
8
 73
4
 74
0
 40
0
 40
0
 40
0
 40
0
 40
1
 40
1
 40
1
 40
1
 10
248.109423
 20
91.284723
 30
0.0
 10
247.714058
 20
91.680087
 30
0.0
 10
247.177829
 20
91.902200
 30
0.0
 10
246.618700
 20
91.902200
 30
0.0
  0
LWPOLYLINE
  5
150
100
AcDbEntity
  8
0
 62
7
100
AcDbPolyline
 90
2
 70
0
 10
212.193800
 20
47.393500
 30
0.0
 10
189.656100
 20
47.401400
 30
0.0
  0
ENDSEC
  0
SECTION
  2
OBJECTS
  0
DICTIONARY
  5
C
330
0
100
AcDbDictionary
  3
ACAD_GROUP
350
D
  3
ACAD_MLINESTYLE
350
17
  0
DICTIONARY
  5
D
330
C
100
AcDbDictionary
  0
DICTIONARY
  5
1A
330
C
100
AcDbDictionary
  0
DICTIONARY
  5
17
330
C
100
AcDbDictionary
  3
STANDARD
350
18
  0
DICTIONARY
  5
19
330
C
100
AcDbDictionary
  0
ENDSEC
  0
EOF
