<?xml version="1.0" encoding="UTF-8" standalone="no"?>
<svg
   version="1.1"
   width="260.3754mm"
   height="117.0432mm"
   viewBox="0.0000 0.0000 260.3754 117.0432"
   id="svg426"
   sodipodi:docname="fabiTEM-cutouts.svg"
   inkscape:version="1.3.2 (091e20ef0f, 2023-11-25, custom)"
   xmlns:inkscape="http://www.inkscape.org/namespaces/inkscape"
   xmlns:sodipodi="http://sodipodi.sourceforge.net/DTD/sodipodi-0.dtd"
   xmlns="http://www.w3.org/2000/svg"
   xmlns:svg="http://www.w3.org/2000/svg"
   xmlns:rdf="http://www.w3.org/1999/02/22-rdf-syntax-ns#"
   xmlns:cc="http://creativecommons.org/ns#"
   xmlns:dc="http://purl.org/dc/elements/1.1/">
  <defs
     id="defs426" />
  <sodipodi:namedview
     id="namedview426"
     pagecolor="#ffffff"
     bordercolor="#000000"
     borderopacity="0.25"
     inkscape:showpageshadow="2"
     inkscape:pageopacity="0.0"
     inkscape:pagecheckerboard="0"
     inkscape:deskcolor="#d1d1d1"
     inkscape:document-units="mm"
     inkscape:zoom="0.79182487"
     inkscape:cx="137.02525"
     inkscape:cy="399.7096"
     inkscape:window-width="1914"
     inkscape:window-height="1025"
     inkscape:window-x="3"
     inkscape:window-y="27"
     inkscape:window-maximized="1"
     inkscape:current-layer="layer2" />
  <title
     id="title1">SVG Image created as fabiTEM-brd.svg date 2024/06/17 15:52:17 </title>
  <desc
     id="desc1">Image generated by PCBNEW </desc>
  <g
     inkscape:groupmode="layer"
     id="layer3"
     inkscape:label="left"
     style="display:inline">
    <path
       d="m 14.538905,0.06 -3.7159,3.7259 0.005,51.5846 L 0.03450482,57.2737 3.1254048,74.8033 10.806905,73.4488 V 75.92 l 3.7221,3.7259 28.402097,-0.0029 3.72,-3.72 h 5 l 3.7158,-3.7259 h 2.5683 l 3.7159,3.7259 h 5 l 3.7158,3.7258 h 4.34 l 9.7761,9.77 h 4.34 l 8.4869,8.4837 v 4.35 l 14.767098,14.7636 13.3985,-13.3985 -2.13525,-2.136 -0.009,-14.7586 -5.4,-5.4 v -3.45 l 5.41,-5.4 0.0379,-68.6971 -3.7159,-3.7259 z"
       id="path390"
       style="font-variation-settings:normal;opacity:1;vector-effect:none;fill:none;fill-opacity:1;stroke:#000000;stroke-width:0.1;stroke-linecap:round;stroke-linejoin:round;stroke-miterlimit:4;stroke-dasharray:none;stroke-dashoffset:0;stroke-opacity:1;-inkscape-stroke:none;stop-color:#000000;stop-opacity:1"
       sodipodi:nodetypes="ccccccccccccccccccccccccccccccc" />
    <g
       id="g427">
      <rect
         style="fill:#0000ff;fill-rule:evenodd;stroke-width:0.264583"
         id="rect426"
         width="14"
         height="14"
         x="58.346802"
         y="19.2311"
         ry="0" />
      <rect
         style="fill:#0000ff;fill-rule:evenodd;stroke-width:0.264583"
         id="rect426-89"
         width="14"
         height="14"
         x="36.278416"
         y="15.583615"
         ry="0"
         transform="rotate(-4)" />
      <rect
         style="fill:#0000ff;fill-rule:evenodd;stroke-width:0.264583"
         id="rect426-89-3"
         width="14"
         height="14"
         x="36.278442"
         y="32.58382"
         ry="0"
         transform="rotate(-4)" />
      <rect
         style="fill:#0000ff;fill-rule:evenodd;stroke-width:0.264583"
         id="rect426-89-3-1"
         width="14"
         height="14"
         x="36.278461"
         y="49.584133"
         ry="0"
         transform="rotate(-4)" />
      <rect
         style="fill:#0000ff;fill-rule:evenodd;stroke-width:0.264583"
         id="rect426-89-3-1-9"
         width="14"
         height="14"
         x="11.106666"
         y="31.793949"
         ry="0"
         transform="rotate(-10)" />
      <rect
         style="fill:#0000ff;fill-rule:evenodd;stroke-width:0.264583"
         id="rect426-89-3-1-9-1"
         width="14"
         height="14"
         x="11.106644"
         y="48.794106"
         ry="0"
         transform="rotate(-10)" />
      <rect
         style="fill:#0000ff;fill-rule:evenodd;stroke-width:0.264583"
         id="rect426-89-3-1-9-1-4"
         width="14"
         height="14"
         x="11.10665"
         y="65.794388"
         ry="0"
         transform="rotate(-10)" />
      <rect
         style="fill:#0000ff;fill-rule:evenodd;stroke-width:0.264583"
         id="rect426-89-3-1-9-1-4-8"
         width="14"
         height="14"
         x="-6.9425788"
         y="58.152096"
         ry="0"
         transform="rotate(-10)" />
      <rect
         style="fill:#0000ff;fill-rule:evenodd;stroke-width:0.264583"
         id="rect426-9"
         width="14"
         height="14"
         x="58.346802"
         y="36.2314"
         ry="0" />
      <rect
         style="fill:#0000ff;fill-rule:evenodd;stroke-width:0.264583"
         id="rect426-2"
         width="14"
         height="14"
         x="58.346802"
         y="2.2309"
         ry="0" />
      <rect
         style="fill:#0000ff;fill-rule:evenodd;stroke-width:0.264583"
         id="rect426-0"
         width="14"
         height="14"
         x="76.346802"
         y="10.6674"
         ry="0" />
      <rect
         style="fill:#0000ff;fill-rule:evenodd;stroke-width:0.264583"
         id="rect426-3"
         width="14"
         height="14"
         x="94.346802"
         y="13.3875"
         ry="0" />
      <rect
         style="fill:#0000ff;fill-rule:evenodd;stroke-width:0.264583"
         id="rect426-06"
         width="14"
         height="14"
         x="76.346802"
         y="27.667601"
         ry="0" />
      <rect
         style="fill:#0000ff;fill-rule:evenodd;stroke-width:0.264583"
         id="rect426-6"
         width="14"
         height="14"
         x="76.346802"
         y="44.667801"
         ry="0" />
      <rect
         style="fill:#0000ff;fill-rule:evenodd;stroke-width:0.264583"
         id="rect426-8"
         width="14"
         height="14"
         x="94.346802"
         y="30.387699"
         ry="0" />
      <rect
         style="fill:#0000ff;fill-rule:evenodd;stroke-width:0.264583"
         id="rect426-92"
         width="14"
         height="14"
         x="94.346802"
         y="47.387901"
         ry="0" />
      <rect
         style="fill:#0000ff;fill-rule:evenodd;stroke-width:0.264583"
         id="rect426-23"
         width="14"
         height="14"
         x="105.98251"
         y="-15.141348"
         ry="0"
         transform="rotate(45)" />
      <rect
         style="fill:#0000ff;fill-rule:evenodd;stroke-width:0.264583"
         id="rect426-23-5"
         width="14"
         height="14"
         x="125.39259"
         y="-18.839518"
         ry="0"
         transform="rotate(45)" />
      <rect
         style="fill:#0000ff;fill-rule:evenodd;stroke-width:0.264583"
         id="rect426-23-2"
         width="14"
         height="14"
         x="144.72871"
         y="-12.89388"
         ry="0"
         transform="rotate(45)" />
    </g>
    <g
       style="fill:#ffffff;fill-opacity:1;stroke:none"
       id="g2446"
       transform="translate(-0.0153531)" />
    <g
       style="fill:#ffffff;fill-opacity:1;stroke:none"
       id="g2465"
       transform="translate(-0.0153531)" />
    <g
       style="fill:#ffffff;fill-opacity:1;stroke:none"
       id="g2466"
       transform="translate(-0.0153531)" />
    <g
       style="fill:#ffffff;fill-opacity:1;stroke:none"
       id="g2467"
       transform="translate(-0.0153531)" />
    <g
       style="fill:#ffffff;fill-opacity:1;stroke:none"
       id="g2468"
       transform="translate(-0.0153531)" />
    <g
       style="fill:#ffffff;fill-opacity:1;stroke:none"
       id="g2469"
       transform="translate(-0.0153531)" />
    <g
       style="fill:#ffffff;fill-opacity:1;stroke:none"
       id="g2470"
       transform="translate(-0.0153531)" />
    <g
       style="fill:#ffffff;fill-opacity:1;stroke:none"
       id="g2471"
       transform="translate(-0.0153531)" />
    <g
       style="fill:#ffffff;fill-opacity:1;stroke:none"
       id="g2484"
       transform="translate(-0.0153531)" />
    <g
       style="fill:#ffffff;fill-opacity:1;stroke:none"
       id="g2485"
       transform="translate(-0.0153531)" />
    <circle
       cx="113.7066"
       cy="72.792999"
       r="1.6"
       id="circle2445"
       style="display:inline;fill:#ff0000;fill-opacity:1;stroke:none"
       transform="translate(-0.0153531)" />
    <circle
       cx="118.5266"
       cy="90.223"
       r="1.6"
       id="circle2464"
       style="display:inline;fill:#ff0000;fill-opacity:1;stroke:none"
       transform="translate(-0.0153531)" />
    <circle
       cx="16.5166"
       cy="75.242996"
       r="1.6"
       id="circle2466"
       style="display:inline;fill:#ff0000;fill-opacity:1;stroke:none"
       transform="translate(-0.0153531)" />
    <circle
       cx="61.875198"
       cy="60.626598"
       r="1.6"
       id="circle2469"
       style="display:inline;fill:#ff0000;fill-opacity:1;stroke:none"
       transform="translate(-0.0153531)" />
    <circle
       cx="39.536598"
       cy="4.553"
       r="1.6"
       id="circle2470"
       style="display:inline;fill:#ff0000;fill-opacity:1;stroke:none"
       transform="translate(-0.0153531)" />
    <circle
       cx="105.1314"
       cy="4.553"
       r="1.6"
       id="circle2484"
       style="display:inline;fill:#ff0000;fill-opacity:1;stroke:none"
       transform="translate(-0.0153531)" />
  </g>
  <g
     inkscape:groupmode="layer"
     id="layer2"
     inkscape:label="right"
     sodipodi:insensitive="true"
     style="display:inline">
    <path
       d="m 245.83209,0.0598997 3.7159,3.7259 -0.005,51.5846003 10.7935,1.9032 -3.0909,17.5296 -7.6815,-1.3545 v 2.4712 l -3.7221,3.7259 -28.4019,-0.0029 -3.71996,-3.72 h -4.99994 l -3.71576,-3.7259 h -2.56829 l -3.7159,3.7259 h -5 l -3.7158,3.7258 h -4.34 l -9.7761,9.769997 h -4.34 l -8.4869,8.4837 v 4.350003 l -14.7671,14.7636 -13.39849,-13.3985 2.13525,-2.136 0.009,-14.758603 5.39999,-5.399997 v -3.45 l -5.40999,-5.4 -0.0379,-68.6971003 3.71589,-3.7259 z"
       id="path390-5"
       style="font-variation-settings:normal;vector-effect:none;fill:none;fill-opacity:1;stroke:#000000;stroke-width:0.1;stroke-linecap:round;stroke-linejoin:round;stroke-miterlimit:4;stroke-dasharray:none;stroke-dashoffset:0;stroke-opacity:1;-inkscape-stroke:none;stop-color:#000000"
       sodipodi:nodetypes="ccccccccccccccccccccccccccccccc" />
    <g
       id="g428">
      <rect
         style="fill:#0000ff;fill-rule:evenodd;stroke-width:0.264583"
         id="rect426-03"
         width="14"
         height="14"
         x="-201.9707"
         y="19.231098"
         ry="0"
         transform="scale(-1,1)" />
      <rect
         style="fill:#0000ff;fill-rule:evenodd;stroke-width:0.264583"
         id="rect426-89-6"
         width="14"
         height="14"
         x="-223.34247"
         y="-2.5641348"
         ry="0"
         transform="matrix(-0.99756405,-0.06975647,-0.06975647,0.99756405,0,0)" />
      <rect
         style="fill:#0000ff;fill-rule:evenodd;stroke-width:0.264583"
         id="rect426-89-3-10"
         width="14"
         height="14"
         x="-223.34245"
         y="14.436078"
         ry="0"
         transform="matrix(-0.99756405,-0.06975647,-0.06975647,0.99756405,0,0)" />
      <rect
         style="fill:#0000ff;fill-rule:evenodd;stroke-width:0.264583"
         id="rect426-89-3-1-6"
         width="14"
         height="14"
         x="-223.34242"
         y="31.436295"
         ry="0"
         transform="matrix(-0.99756405,-0.06975647,-0.06975647,0.99756405,0,0)" />
      <rect
         style="fill:#0000ff;fill-rule:evenodd;stroke-width:0.264583"
         id="rect426-89-3-1-9-3"
         width="14"
         height="14"
         x="-245.27933"
         y="-13.396667"
         ry="0"
         transform="matrix(-0.98480775,-0.17364818,-0.17364818,0.98480775,0,0)" />
      <rect
         style="fill:#0000ff;fill-rule:evenodd;stroke-width:0.264583"
         id="rect426-89-3-1-9-1-2"
         width="14"
         height="14"
         x="-245.27939"
         y="3.6035926"
         ry="0"
         transform="matrix(-0.98480775,-0.17364818,-0.17364818,0.98480775,0,0)" />
      <rect
         style="fill:#0000ff;fill-rule:evenodd;stroke-width:0.264583"
         id="rect426-89-3-1-9-1-4-0"
         width="14"
         height="14"
         x="-245.27936"
         y="20.603777"
         ry="0"
         transform="matrix(-0.98480775,-0.17364818,-0.17364818,0.98480775,0,0)" />
      <rect
         style="fill:#0000ff;fill-rule:evenodd;stroke-width:0.264583"
         id="rect426-89-3-1-9-1-4-8-6"
         width="14"
         height="14"
         x="-263.27838"
         y="12.953149"
         ry="0"
         transform="matrix(-0.98480775,-0.17364818,-0.17364818,0.98480775,0,0)" />
      <rect
         style="fill:#0000ff;fill-rule:evenodd;stroke-width:0.264583"
         id="rect426-9-1"
         width="14"
         height="14"
         x="-201.9707"
         y="36.2314"
         ry="0"
         transform="scale(-1,1)" />
      <rect
         style="fill:#0000ff;fill-rule:evenodd;stroke-width:0.264583"
         id="rect426-2-5"
         width="14"
         height="14"
         x="-201.9707"
         y="2.2309003"
         ry="0"
         transform="scale(-1,1)" />
      <rect
         style="fill:#0000ff;fill-rule:evenodd;stroke-width:0.264583"
         id="rect426-0-5"
         width="14"
         height="14"
         x="-183.97079"
         y="10.6674"
         ry="0"
         transform="scale(-1,1)" />
      <rect
         style="fill:#0000ff;fill-rule:evenodd;stroke-width:0.264583"
         id="rect426-3-4"
         width="14"
         height="14"
         x="-165.97079"
         y="13.387499"
         ry="0"
         transform="scale(-1,1)" />
      <rect
         style="fill:#0000ff;fill-rule:evenodd;stroke-width:0.264583"
         id="rect426-06-7"
         width="14"
         height="14"
         x="-183.97079"
         y="27.667599"
         ry="0"
         transform="scale(-1,1)" />
      <rect
         style="fill:#0000ff;fill-rule:evenodd;stroke-width:0.264583"
         id="rect426-6-6"
         width="14"
         height="14"
         x="-183.97079"
         y="44.667801"
         ry="0"
         transform="scale(-1,1)" />
      <rect
         style="fill:#0000ff;fill-rule:evenodd;stroke-width:0.264583"
         id="rect426-8-5"
         width="14"
         height="14"
         x="-165.9709"
         y="30.472799"
         ry="0"
         transform="scale(-1,1)" />
      <rect
         style="fill:#0000ff;fill-rule:evenodd;stroke-width:0.264583"
         id="rect426-92-6"
         width="14"
         height="14"
         x="-165.9709"
         y="47.473"
         ry="0"
         transform="scale(-1,1)" />
      <rect
         style="fill:#0000ff;fill-rule:evenodd;stroke-width:0.264583"
         id="rect426-23-9"
         width="14"
         height="14"
         x="-78.909012"
         y="169.10884"
         ry="0"
         transform="matrix(-0.70710678,0.70710678,0.70710678,0.70710678,0,0)" />
      <rect
         style="fill:#0000ff;fill-rule:evenodd;stroke-width:0.264583"
         id="rect426-23-5-3"
         width="14"
         height="14"
         x="-59.392799"
         y="165.68877"
         ry="0"
         transform="matrix(-0.70710678,0.70710678,0.70710678,0.70710678,0,0)" />
      <rect
         style="fill:#0000ff;fill-rule:evenodd;stroke-width:0.264583"
         id="rect426-23-2-7"
         width="14"
         height="14"
         x="-39.906555"
         y="171.08575"
         ry="0"
         transform="matrix(-0.70710678,0.70710678,0.70710678,0.70710678,0,0)" />
    </g>
    <circle
       cx="142.02126"
       cy="90.233002"
       r="1.6"
       id="circle2444"
       style="display:inline;fill:#ff0000;fill-opacity:1;stroke:none" />
    <circle
       cx="155.1866"
       cy="4.553"
       r="1.6"
       id="circle2491"
       style="display:inline;fill:#ff0000;fill-opacity:1;stroke:none"
       transform="translate(-0.0153531)" />
    <circle
       cx="198.5526"
       cy="61.845798"
       r="1.6"
       id="circle2465"
       style="display:inline;fill:#ff0000;fill-opacity:1;stroke:none"
       transform="translate(-0.0153531)" />
    <circle
       cx="145.03661"
       cy="72.733002"
       r="1.6"
       id="circle2483"
       style="display:inline;fill:#ff0000;fill-opacity:1;stroke:none"
       transform="translate(-0.0153531)" />
    <circle
       cx="221.92661"
       cy="4.5630002"
       r="1.6"
       id="circle2468"
       style="display:inline;fill:#ff0000;fill-opacity:1;stroke:none"
       transform="translate(-0.0153531)" />
    <circle
       cx="243.1666"
       cy="75.142998"
       r="1.6"
       id="circle2467"
       style="display:inline;fill:#ff0000;fill-opacity:1;stroke:none"
       transform="translate(-0.0153531)" />
  </g>
  <metadata
     id="metadata428">
    <rdf:RDF>
      <cc:Work
         rdf:about="">
        <dc:title>SVG Image created as fabiTEM-brd.svg date 2024/06/17 15:52:17 </dc:title>
      </cc:Work>
    </rdf:RDF>
  </metadata>
</svg>
