  0
SECTION
  2
HEADER
  9
$ACADVER
  1
AC1014
  9
$HANDSEED
  5
FFFF
  9
$INSUNITS
 70
     4
  9
$MEASUREMENT
 70
     1
  0
ENDSEC
  0
SECTION
  2
TABLES
  0
TABLE
  2
VPORT
  5
8
330
0
100
AcDbSymbolTable
 70
     4
  0
VPORT
  5
2E
330
8
100
AcDbSymbolTableRecord
100
AcDbViewportTableRecord
  2
*ACTIVE
 70
     0
 10
0.0
 20
0.0
 11
1.0
 21
1.0
 12
210.0
 22
148.5
 13
0.0
 23
0.0
 14
10.0
 24
10.0
 15
10.0
 25
10.0
 16
0.0
 26
0.0
 36
1.0
 17
0.0
 27
0.0
 37
0.0
 40
341.0
 41
1.24
 42
50.0
 43
0.0
 44
0.0
 50
0.0
 51
0.0
 71
     0
 72
   100
 73
     1
 74
     3
 75
     0
 76
     0
 77
     0
 78
     0
  0
ENDTAB
  0
TABLE
  2
LTYPE
  5
5
330
0
100
AcDbSymbolTable
 70
     1
  0
LTYPE
  5
14
330
5
100
AcDbSymbolTableRecord
100
AcDbLinetypeTableRecord
  2
BYBLOCK
 70
     0
  3

 72
    65
 73
     0
 40
0.0
  0
LTYPE
  5
15
330
5
100
AcDbSymbolTableRecord
100
AcDbLinetypeTableRecord
  2
BYLAYER
 70
     0
  3

 72
    65
 73
     0
 40
0.0
  0
LTYPE
  5
16
330
5
100
AcDbSymbolTableRecord
100
AcDbLinetypeTableRecord
  2
CONTINUOUS
 70
     0
  3
Solid line
 72
    65
 73
     0
 40
0.0
  0
ENDTAB
  0
TABLE
  2
LAYER
  5
2
100
AcDbSymbolTable
 70
3
  0
LAYER
  5
50
100
AcDbSymbolTableRecord
100
AcDbLayerTableRecord
  2
0
 70
0
  6
CONTINUOUS
  0
LAYER
  5
51
100
AcDbSymbolTableRecord
100
AcDbLayerTableRecord
  2
left
 70
0
  6
CONTINUOUS
  0
LAYER
  5
52
100
AcDbSymbolTableRecord
100
AcDbLayerTableRecord
  2
right
 70
0
  6
CONTINUOUS
  0
ENDTAB
  0
TABLE
  2
STYLE
  5
3
330
0
100
AcDbSymbolTable
 70
     1
  0
STYLE
  5
11
330
3
100
AcDbSymbolTableRecord
100
AcDbTextStyleTableRecord
  2
STANDARD
 70
     0
 40
0.0
 41
1.0
 50
0.0
 71
     0
 42
2.5
  3
txt
  4

  0
ENDTAB
  0
TABLE
  2
VIEW
  5
6
330
0
100
AcDbSymbolTable
 70
     0
  0
ENDTAB
  0
TABLE
  2
UCS
  5
7
330
0
100
AcDbSymbolTable
 70
     0
  0
ENDTAB
  0
TABLE
  2
APPID
  5
9
330
0
100
AcDbSymbolTable
 70
     2
  0
APPID
  5
12
330
9
100
AcDbSymbolTableRecord
100
AcDbRegAppTableRecord
  2
ACAD
 70
     0
  0
ENDTAB
  0
TABLE
  2
DIMSTYLE
  5
A
330
0
100
AcDbSymbolTable
 70
     1
  0
DIMSTYLE
105
27
330
A
100
AcDbSymbolTableRecord
100
AcDbDimStyleTableRecord
  2
ISO-25
 70
     0
  3

  4

  5

  6

  7

 40
1.0
 41
2.5
 42
0.625
 43
3.75
 44
1.25
 45
0.0
 46
0.0
 47
0.0
 48
0.0
140
2.5
141
2.5
142
0.0
143
0.03937007874016
144
1.0
145
0.0
146
1.0
147
0.625
 71
     0
 72
     0
 73
     0
 74
     0
 75
     0
 76
     0
 77
     1
 78
     8
170
     0
171
     3
172
     1
173
     0
174
     0
175
     0
176
     0
177
     0
178
     0
270
     2
271
     2
272
     2
273
     2
274
     3
340
11
275
     0
280
     0
281
     0
282
     0
283
     0
284
     8
285
     0
286
     0
287
     3
288
     0
  0
ENDTAB
  0
TABLE
  2
BLOCK_RECORD
  5
1
330
0
100
AcDbSymbolTable
 70
     1
  0
BLOCK_RECORD
  5
1F
330
1
100
AcDbSymbolTableRecord
100
AcDbBlockTableRecord
  2
*MODEL_SPACE
  0
BLOCK_RECORD
  5
1B
330
1
100
AcDbSymbolTableRecord
100
AcDbBlockTableRecord
  2
*PAPER_SPACE
  0
ENDTAB
  0
ENDSEC
  0
SECTION
  2
BLOCKS
  0
BLOCK
  5
20
330
1F
100
AcDbEntity
  8
0
100
AcDbBlockBegin
  2
*MODEL_SPACE
 70
     0
 10
0.0
 20
0.0
 30
0.0
  3
*MODEL_SPACE
  1

  0
ENDBLK
  5
21
330
1F
100
AcDbEntity
  8
0
100
AcDbBlockEnd
  0
BLOCK
  5
1C
330
1B
100
AcDbEntity
 67
     1
  8
0
100
AcDbBlockBegin
  2
*PAPER_SPACE
  1

  0
ENDBLK
  5
1D
330
1B
100
AcDbEntity
 67
     1
  8
0
100
AcDbBlockEnd
  0
ENDSEC
  0
SECTION
  2
ENTITIES
  0
LWPOLYLINE
  5
100
100
AcDbEntity
  8
left
 62
7
100
AcDbPolyline
 90
30
 70
1
 10
14.538905
 20
116.983200
 30
0.0
 10
10.823005
 20
113.257300
 30
0.0
 10
10.828005
 20
61.672700
 30
0.0
 10
0.034505
 20
59.769500
 30
0.0
 10
3.125405
 20
42.239900
 30
0.0
 10
10.806905
 20
43.594400
 30
0.0
 10
10.806905
 20
41.123200
 30
0.0
 10
14.529005
 20
37.397300
 30
0.0
 10
42.931102
 20
37.400200
 30
0.0
 10
46.651102
 20
41.120200
 30
0.0
 10
51.651102
 20
41.120200
 30
0.0
 10
55.366902
 20
44.846100
 30
0.0
 10
57.935202
 20
44.846100
 30
0.0
 10
61.651102
 20
41.120200
 30
0.0
 10
66.651102
 20
41.120200
 30
0.0
 10
70.366902
 20
37.394400
 30
0.0
 10
74.706902
 20
37.394400
 30
0.0
 10
84.483002
 20
27.624400
 30
0.0
 10
88.823002
 20
27.624400
 30
0.0
 10
97.309902
 20
19.140700
 30
0.0
 10
97.309902
 20
14.790700
 30
0.0
 10
112.077000
 20
0.027100
 30
0.0
 10
125.475500
 20
13.425600
 30
0.0
 10
123.340250
 20
15.561600
 30
0.0
 10
123.331250
 20
30.320200
 30
0.0
 10
117.931250
 20
35.720200
 30
0.0
 10
117.931250
 20
39.170200
 30
0.0
 10
123.341250
 20
44.570200
 30
0.0
 10
123.379150
 20
113.267300
 30
0.0
 10
119.663250
 20
116.993200
 30
0.0
  0
LWPOLYLINE
  5
101
100
AcDbEntity
  8
left
 62
7
100
AcDbPolyline
 90
4
 70
1
 10
58.346802
 20
97.812100
 30
0.0
 10
72.346802
 20
97.812100
 30
0.0
 10
72.346802
 20
83.812100
 30
0.0
 10
58.346802
 20
83.812100
 30
0.0
  0
LWPOLYLINE
  5
102
100
AcDbEntity
  8
left
 62
7
100
AcDbPolyline
 90
4
 70
1
 10
37.277102
 20
104.028200
 30
0.0
 10
51.242998
 20
105.004791
 30
0.0
 10
52.219589
 20
91.038894
 30
0.0
 10
38.253692
 20
90.062304
 30
0.0
  0
LWPOLYLINE
  5
103
100
AcDbEntity
  8
left
 62
7
100
AcDbPolyline
 90
4
 70
1
 10
38.463002
 20
87.069409
 30
0.0
 10
52.428899
 20
88.045999
 30
0.0
 10
53.405489
 20
74.080103
 30
0.0
 10
39.439593
 20
73.103512
 30
0.0
  0
LWPOLYLINE
  5
104
100
AcDbEntity
  8
left
 62
7
100
AcDbPolyline
 90
4
 70
1
 10
39.648903
 20
70.110509
 30
0.0
 10
53.614799
 20
71.087100
 30
0.0
 10
54.591390
 20
57.121203
 30
0.0
 10
40.625493
 20
56.144612
 30
0.0
  0
LWPOLYLINE
  5
105
100
AcDbEntity
  8
left
 62
7
100
AcDbPolyline
 90
4
 70
1
 10
16.458892
 20
87.660925
 30
0.0
 10
30.246201
 20
90.091999
 30
0.0
 10
32.677275
 20
76.304691
 30
0.0
 10
18.889967
 20
73.873616
 30
0.0
  0
LWPOLYLINE
  5
106
100
AcDbEntity
  8
left
 62
7
100
AcDbPolyline
 90
4
 70
1
 10
19.410917
 20
70.919035
 30
0.0
 10
33.198225
 20
73.350109
 30
0.0
 10
35.629300
 20
59.562801
 30
0.0
 10
21.841991
 20
57.131726
 30
0.0
  0
LWPOLYLINE
  5
107
100
AcDbEntity
  8
left
 62
7
100
AcDbPolyline
 90
4
 70
1
 10
22.362991
 20
54.177026
 30
0.0
 10
36.150299
 20
56.608101
 30
0.0
 10
38.581374
 20
42.820792
 30
0.0
 10
24.794065
 20
40.389718
 30
0.0
  0
LWPOLYLINE
  5
108
100
AcDbEntity
  8
left
 62
7
100
AcDbPolyline
 90
4
 70
1
 10
3.260900
 20
58.568999
 30
0.0
 10
17.048209
 20
61.000073
 30
0.0
 10
19.479283
 20
47.212765
 30
0.0
 10
5.691975
 20
44.781690
 30
0.0
  0
LWPOLYLINE
  5
109
100
AcDbEntity
  8
left
 62
7
100
AcDbPolyline
 90
4
 70
1
 10
58.346802
 20
80.811800
 30
0.0
 10
72.346802
 20
80.811800
 30
0.0
 10
72.346802
 20
66.811800
 30
0.0
 10
58.346802
 20
66.811800
 30
0.0
  0
LWPOLYLINE
  5
10a
100
AcDbEntity
  8
left
 62
7
100
AcDbPolyline
 90
4
 70
1
 10
58.346802
 20
114.812300
 30
0.0
 10
72.346802
 20
114.812300
 30
0.0
 10
72.346802
 20
100.812300
 30
0.0
 10
58.346802
 20
100.812300
 30
0.0
  0
LWPOLYLINE
  5
10b
100
AcDbEntity
  8
left
 62
7
100
AcDbPolyline
 90
4
 70
1
 10
76.346802
 20
106.375800
 30
0.0
 10
90.346802
 20
106.375800
 30
0.0
 10
90.346802
 20
92.375800
 30
0.0
 10
76.346802
 20
92.375800
 30
0.0
  0
LWPOLYLINE
  5
10c
100
AcDbEntity
  8
left
 62
7
100
AcDbPolyline
 90
4
 70
1
 10
94.346802
 20
103.655700
 30
0.0
 10
108.346802
 20
103.655700
 30
0.0
 10
108.346802
 20
89.655700
 30
0.0
 10
94.346802
 20
89.655700
 30
0.0
  0
LWPOLYLINE
  5
10d
100
AcDbEntity
  8
left
 62
7
100
AcDbPolyline
 90
4
 70
1
 10
76.346802
 20
89.375599
 30
0.0
 10
90.346802
 20
89.375599
 30
0.0
 10
90.346802
 20
75.375599
 30
0.0
 10
76.346802
 20
75.375599
 30
0.0
  0
LWPOLYLINE
  5
10e
100
AcDbEntity
  8
left
 62
7
100
AcDbPolyline
 90
4
 70
1
 10
76.346802
 20
72.375399
 30
0.0
 10
90.346802
 20
72.375399
 30
0.0
 10
90.346802
 20
58.375399
 30
0.0
 10
76.346802
 20
58.375399
 30
0.0
  0
LWPOLYLINE
  5
10f
100
AcDbEntity
  8
left
 62
7
100
AcDbPolyline
 90
4
 70
1
 10
94.346802
 20
86.655501
 30
0.0
 10
108.346802
 20
86.655501
 30
0.0
 10
108.346802
 20
72.655501
 30
0.0
 10
94.346802
 20
72.655501
 30
0.0
  0
LWPOLYLINE
  5
110
100
AcDbEntity
  8
left
 62
7
100
AcDbPolyline
 90
4
 70
1
 10
94.346802
 20
69.655299
 30
0.0
 10
108.346802
 20
69.655299
 30
0.0
 10
108.346802
 20
55.655299
 30
0.0
 10
94.346802
 20
55.655299
 30
0.0
  0
LWPOLYLINE
  5
111
100
AcDbEntity
  8
left
 62
7
100
AcDbPolyline
 90
4
 70
1
 10
85.647501
 20
52.808798
 30
0.0
 10
95.546996
 20
42.909303
 30
0.0
 10
85.647501
 20
33.009808
 30
0.0
 10
75.748006
 20
42.909303
 30
0.0
  0
LWPOLYLINE
  5
112
100
AcDbEntity
  8
left
 62
7
100
AcDbPolyline
 90
4
 70
1
 10
101.987502
 20
41.698800
 30
0.0
 10
111.886997
 20
31.799305
 30
0.0
 10
101.987502
 20
21.899810
 30
0.0
 10
92.088007
 20
31.799305
 30
0.0
  0
SPLINE
  5
113
100
AcDbEntity
  8
left
 62
7
100
AcDbSpline
 70
8
 71
3
 72
8
 73
4
 74
0
 40
0
 40
0
 40
0
 40
0
 40
1
 40
1
 40
1
 40
1
 10
113.691247
 20
45.850201
 30
0.0
 10
113.044107
 20
45.850201
 30
0.0
 10
112.460689
 20
45.460374
 30
0.0
 10
112.213040
 20
44.862494
 30
0.0
  0
SPLINE
  5
114
100
AcDbEntity
  8
left
 62
7
100
AcDbSpline
 70
8
 71
3
 72
8
 73
4
 74
0
 40
0
 40
0
 40
0
 40
0
 40
1
 40
1
 40
1
 40
1
 10
112.213040
 20
44.862494
 30
0.0
 10
111.965390
 20
44.264615
 30
0.0
 10
112.102279
 20
43.576427
 30
0.0
 10
112.559876
 20
43.118830
 30
0.0
  0
SPLINE
  5
115
100
AcDbEntity
  8
left
 62
7
100
AcDbSpline
 70
8
 71
3
 72
8
 73
4
 74
0
 40
0
 40
0
 40
0
 40
0
 40
1
 40
1
 40
1
 40
1
 10
112.559876
 20
43.118830
 30
0.0
 10
113.017473
 20
42.661233
 30
0.0
 10
113.705661
 20
42.524344
 30
0.0
 10
114.303540
 20
42.771994
 30
0.0
  0
SPLINE
  5
116
100
AcDbEntity
  8
left
 62
7
100
AcDbSpline
 70
8
 71
3
 72
8
 73
4
 74
0
 40
0
 40
0
 40
0
 40
0
 40
1
 40
1
 40
1
 40
1
 10
114.303540
 20
42.771994
 30
0.0
 10
114.901419
 20
43.019643
 30
0.0
 10
115.291247
 20
43.603061
 30
0.0
 10
115.291247
 20
44.250201
 30
0.0
  0
SPLINE
  5
117
100
AcDbEntity
  8
left
 62
7
100
AcDbSpline
 70
8
 71
3
 72
8
 73
4
 74
0
 40
0
 40
0
 40
0
 40
0
 40
1
 40
1
 40
1
 40
1
 10
115.291247
 20
44.250201
 30
0.0
 10
115.291247
 20
45.133857
 30
0.0
 10
114.574902
 20
45.850201
 30
0.0
 10
113.691247
 20
45.850201
 30
0.0
  0
LWPOLYLINE
  5
118
100
AcDbEntity
  8
left
 62
7
100
AcDbPolyline
 90
4
 70
1
 10
111.456002
 20
23.821898
 30
0.0
 10
121.355497
 20
13.922403
 30
0.0
 10
111.456002
 20
4.022908
 30
0.0
 10
101.556507
 20
13.922403
 30
0.0
  0
SPLINE
  5
119
100
AcDbEntity
  8
left
 62
7
100
AcDbSpline
 70
8
 71
3
 72
8
 73
4
 74
0
 40
0
 40
0
 40
0
 40
0
 40
1
 40
1
 40
1
 40
1
 10
118.511247
 20
28.420200
 30
0.0
 10
117.864107
 20
28.420200
 30
0.0
 10
117.280689
 20
28.030373
 30
0.0
 10
117.033040
 20
27.432493
 30
0.0
  0
SPLINE
  5
11a
100
AcDbEntity
  8
left
 62
7
100
AcDbSpline
 70
8
 71
3
 72
8
 73
4
 74
0
 40
0
 40
0
 40
0
 40
0
 40
1
 40
1
 40
1
 40
1
 10
117.033040
 20
27.432493
 30
0.0
 10
116.785390
 20
26.834614
 30
0.0
 10
116.922279
 20
26.146426
 30
0.0
 10
117.379876
 20
25.688829
 30
0.0
  0
SPLINE
  5
11b
100
AcDbEntity
  8
left
 62
7
100
AcDbSpline
 70
8
 71
3
 72
8
 73
4
 74
0
 40
0
 40
0
 40
0
 40
0
 40
1
 40
1
 40
1
 40
1
 10
117.379876
 20
25.688829
 30
0.0
 10
117.837473
 20
25.231232
 30
0.0
 10
118.525661
 20
25.094343
 30
0.0
 10
119.123540
 20
25.341993
 30
0.0
  0
SPLINE
  5
11c
100
AcDbEntity
  8
left
 62
7
100
AcDbSpline
 70
8
 71
3
 72
8
 73
4
 74
0
 40
0
 40
0
 40
0
 40
0
 40
1
 40
1
 40
1
 40
1
 10
119.123540
 20
25.341993
 30
0.0
 10
119.721419
 20
25.589642
 30
0.0
 10
120.111247
 20
26.173060
 30
0.0
 10
120.111247
 20
26.820200
 30
0.0
  0
SPLINE
  5
11d
100
AcDbEntity
  8
left
 62
7
100
AcDbSpline
 70
8
 71
3
 72
8
 73
4
 74
0
 40
0
 40
0
 40
0
 40
0
 40
1
 40
1
 40
1
 40
1
 10
120.111247
 20
26.820200
 30
0.0
 10
120.111247
 20
27.244546
 30
0.0
 10
119.942676
 20
27.651513
 30
0.0
 10
119.642618
 20
27.951571
 30
0.0
  0
SPLINE
  5
11e
100
AcDbEntity
  8
left
 62
7
100
AcDbSpline
 70
8
 71
3
 72
8
 73
4
 74
0
 40
0
 40
0
 40
0
 40
0
 40
1
 40
1
 40
1
 40
1
 10
119.642618
 20
27.951571
 30
0.0
 10
119.342560
 20
28.251629
 30
0.0
 10
118.935593
 20
28.420200
 30
0.0
 10
118.511247
 20
28.420200
 30
0.0
  0
LWPOLYLINE
  5
11f
100
AcDbEntity
  8
left
 62
7
100
AcDbPolyline
 90
1
 70
1
 10
113.691247
 20
45.850201
 30
0.0
  0
SPLINE
  5
120
100
AcDbEntity
  8
left
 62
7
100
AcDbSpline
 70
8
 71
3
 72
8
 73
4
 74
0
 40
0
 40
0
 40
0
 40
0
 40
1
 40
1
 40
1
 40
1
 10
16.501247
 20
43.400204
 30
0.0
 10
15.854107
 20
43.400204
 30
0.0
 10
15.270689
 20
43.010377
 30
0.0
 10
15.023040
 20
42.412497
 30
0.0
  0
SPLINE
  5
121
100
AcDbEntity
  8
left
 62
7
100
AcDbSpline
 70
8
 71
3
 72
8
 73
4
 74
0
 40
0
 40
0
 40
0
 40
0
 40
1
 40
1
 40
1
 40
1
 10
15.023040
 20
42.412497
 30
0.0
 10
14.775390
 20
41.814618
 30
0.0
 10
14.912279
 20
41.126430
 30
0.0
 10
15.369876
 20
40.668833
 30
0.0
  0
SPLINE
  5
122
100
AcDbEntity
  8
left
 62
7
100
AcDbSpline
 70
8
 71
3
 72
8
 73
4
 74
0
 40
0
 40
0
 40
0
 40
0
 40
1
 40
1
 40
1
 40
1
 10
15.369876
 20
40.668833
 30
0.0
 10
15.827473
 20
40.211236
 30
0.0
 10
16.515661
 20
40.074347
 30
0.0
 10
17.113540
 20
40.321997
 30
0.0
  0
SPLINE
  5
123
100
AcDbEntity
  8
left
 62
7
100
AcDbSpline
 70
8
 71
3
 72
8
 73
4
 74
0
 40
0
 40
0
 40
0
 40
0
 40
1
 40
1
 40
1
 40
1
 10
17.113540
 20
40.321997
 30
0.0
 10
17.711419
 20
40.569646
 30
0.0
 10
18.101247
 20
41.153064
 30
0.0
 10
18.101247
 20
41.800204
 30
0.0
  0
SPLINE
  5
124
100
AcDbEntity
  8
left
 62
7
100
AcDbSpline
 70
8
 71
3
 72
8
 73
4
 74
0
 40
0
 40
0
 40
0
 40
0
 40
1
 40
1
 40
1
 40
1
 10
18.101247
 20
41.800204
 30
0.0
 10
18.101247
 20
42.224550
 30
0.0
 10
17.932676
 20
42.631517
 30
0.0
 10
17.632618
 20
42.931575
 30
0.0
  0
SPLINE
  5
125
100
AcDbEntity
  8
left
 62
7
100
AcDbSpline
 70
8
 71
3
 72
8
 73
4
 74
0
 40
0
 40
0
 40
0
 40
0
 40
1
 40
1
 40
1
 40
1
 10
17.632618
 20
42.931575
 30
0.0
 10
17.332560
 20
43.231633
 30
0.0
 10
16.925593
 20
43.400204
 30
0.0
 10
16.501247
 20
43.400204
 30
0.0
  0
LWPOLYLINE
  5
126
100
AcDbEntity
  8
left
 62
7
100
AcDbPolyline
 90
1
 70
1
 10
118.511247
 20
28.420200
 30
0.0
  0
SPLINE
  5
127
100
AcDbEntity
  8
left
 62
7
100
AcDbSpline
 70
8
 71
3
 72
8
 73
4
 74
0
 40
0
 40
0
 40
0
 40
0
 40
1
 40
1
 40
1
 40
1
 10
61.859845
 20
58.016602
 30
0.0
 10
61.212705
 20
58.016602
 30
0.0
 10
60.629287
 20
57.626775
 30
0.0
 10
60.381638
 20
57.028895
 30
0.0
  0
SPLINE
  5
128
100
AcDbEntity
  8
left
 62
7
100
AcDbSpline
 70
8
 71
3
 72
8
 73
4
 74
0
 40
0
 40
0
 40
0
 40
0
 40
1
 40
1
 40
1
 40
1
 10
60.381638
 20
57.028895
 30
0.0
 10
60.133988
 20
56.431016
 30
0.0
 10
60.270877
 20
55.742828
 30
0.0
 10
60.728474
 20
55.285231
 30
0.0
  0
SPLINE
  5
129
100
AcDbEntity
  8
left
 62
7
100
AcDbSpline
 70
8
 71
3
 72
8
 73
4
 74
0
 40
0
 40
0
 40
0
 40
0
 40
1
 40
1
 40
1
 40
1
 10
60.728474
 20
55.285231
 30
0.0
 10
61.186071
 20
54.827634
 30
0.0
 10
61.874259
 20
54.690745
 30
0.0
 10
62.472138
 20
54.938395
 30
0.0
  0
SPLINE
  5
12a
100
AcDbEntity
  8
left
 62
7
100
AcDbSpline
 70
8
 71
3
 72
8
 73
4
 74
0
 40
0
 40
0
 40
0
 40
0
 40
1
 40
1
 40
1
 40
1
 10
62.472138
 20
54.938395
 30
0.0
 10
63.070017
 20
55.186044
 30
0.0
 10
63.459845
 20
55.769462
 30
0.0
 10
63.459845
 20
56.416602
 30
0.0
  0
SPLINE
  5
12b
100
AcDbEntity
  8
left
 62
7
100
AcDbSpline
 70
8
 71
3
 72
8
 73
4
 74
0
 40
0
 40
0
 40
0
 40
0
 40
1
 40
1
 40
1
 40
1
 10
63.459845
 20
56.416602
 30
0.0
 10
63.459845
 20
56.840948
 30
0.0
 10
63.291274
 20
57.247915
 30
0.0
 10
62.991216
 20
57.547973
 30
0.0
  0
SPLINE
  5
12c
100
AcDbEntity
  8
left
 62
7
100
AcDbSpline
 70
8
 71
3
 72
8
 73
4
 74
0
 40
0
 40
0
 40
0
 40
0
 40
1
 40
1
 40
1
 40
1
 10
62.991216
 20
57.547973
 30
0.0
 10
62.691158
 20
57.848031
 30
0.0
 10
62.284191
 20
58.016602
 30
0.0
 10
61.859845
 20
58.016602
 30
0.0
  0
LWPOLYLINE
  5
12d
100
AcDbEntity
  8
left
 62
7
100
AcDbPolyline
 90
1
 70
1
 10
16.501247
 20
43.400204
 30
0.0
  0
SPLINE
  5
12e
100
AcDbEntity
  8
left
 62
7
100
AcDbSpline
 70
8
 71
3
 72
8
 73
4
 74
0
 40
0
 40
0
 40
0
 40
0
 40
1
 40
1
 40
1
 40
1
 10
39.521245
 20
114.090200
 30
0.0
 10
38.874105
 20
114.090200
 30
0.0
 10
38.290687
 20
113.700373
 30
0.0
 10
38.043038
 20
113.102493
 30
0.0
  0
SPLINE
  5
12f
100
AcDbEntity
  8
left
 62
7
100
AcDbSpline
 70
8
 71
3
 72
8
 73
4
 74
0
 40
0
 40
0
 40
0
 40
0
 40
1
 40
1
 40
1
 40
1
 10
38.043038
 20
113.102493
 30
0.0
 10
37.795388
 20
112.504614
 30
0.0
 10
37.932277
 20
111.816426
 30
0.0
 10
38.389874
 20
111.358829
 30
0.0
  0
SPLINE
  5
130
100
AcDbEntity
  8
left
 62
7
100
AcDbSpline
 70
8
 71
3
 72
8
 73
4
 74
0
 40
0
 40
0
 40
0
 40
0
 40
1
 40
1
 40
1
 40
1
 10
38.389874
 20
111.358829
 30
0.0
 10
38.847471
 20
110.901232
 30
0.0
 10
39.535659
 20
110.764343
 30
0.0
 10
40.133538
 20
111.011993
 30
0.0
  0
SPLINE
  5
131
100
AcDbEntity
  8
left
 62
7
100
AcDbSpline
 70
8
 71
3
 72
8
 73
4
 74
0
 40
0
 40
0
 40
0
 40
0
 40
1
 40
1
 40
1
 40
1
 10
40.133538
 20
111.011993
 30
0.0
 10
40.731417
 20
111.259642
 30
0.0
 10
41.121245
 20
111.843060
 30
0.0
 10
41.121245
 20
112.490200
 30
0.0
  0
SPLINE
  5
132
100
AcDbEntity
  8
left
 62
7
100
AcDbSpline
 70
8
 71
3
 72
8
 73
4
 74
0
 40
0
 40
0
 40
0
 40
0
 40
1
 40
1
 40
1
 40
1
 10
41.121245
 20
112.490200
 30
0.0
 10
41.121245
 20
112.914546
 30
0.0
 10
40.952674
 20
113.321513
 30
0.0
 10
40.652616
 20
113.621571
 30
0.0
  0
SPLINE
  5
133
100
AcDbEntity
  8
left
 62
7
100
AcDbSpline
 70
8
 71
3
 72
8
 73
4
 74
0
 40
0
 40
0
 40
0
 40
0
 40
1
 40
1
 40
1
 40
1
 10
40.652616
 20
113.621571
 30
0.0
 10
40.352558
 20
113.921629
 30
0.0
 10
39.945591
 20
114.090200
 30
0.0
 10
39.521245
 20
114.090200
 30
0.0
  0
LWPOLYLINE
  5
134
100
AcDbEntity
  8
left
 62
7
100
AcDbPolyline
 90
1
 70
1
 10
61.859845
 20
58.016602
 30
0.0
  0
SPLINE
  5
135
100
AcDbEntity
  8
left
 62
7
100
AcDbSpline
 70
8
 71
3
 72
8
 73
4
 74
0
 40
0
 40
0
 40
0
 40
0
 40
1
 40
1
 40
1
 40
1
 10
105.116047
 20
114.090200
 30
0.0
 10
104.468907
 20
114.090200
 30
0.0
 10
103.885489
 20
113.700373
 30
0.0
 10
103.637840
 20
113.102493
 30
0.0
  0
SPLINE
  5
136
100
AcDbEntity
  8
left
 62
7
100
AcDbSpline
 70
8
 71
3
 72
8
 73
4
 74
0
 40
0
 40
0
 40
0
 40
0
 40
1
 40
1
 40
1
 40
1
 10
103.637840
 20
113.102493
 30
0.0
 10
103.390190
 20
112.504614
 30
0.0
 10
103.527079
 20
111.816426
 30
0.0
 10
103.984676
 20
111.358829
 30
0.0
  0
SPLINE
  5
137
100
AcDbEntity
  8
left
 62
7
100
AcDbSpline
 70
8
 71
3
 72
8
 73
4
 74
0
 40
0
 40
0
 40
0
 40
0
 40
1
 40
1
 40
1
 40
1
 10
103.984676
 20
111.358829
 30
0.0
 10
104.442273
 20
110.901232
 30
0.0
 10
105.130461
 20
110.764343
 30
0.0
 10
105.728340
 20
111.011993
 30
0.0
  0
SPLINE
  5
138
100
AcDbEntity
  8
left
 62
7
100
AcDbSpline
 70
8
 71
3
 72
8
 73
4
 74
0
 40
0
 40
0
 40
0
 40
0
 40
1
 40
1
 40
1
 40
1
 10
105.728340
 20
111.011993
 30
0.0
 10
106.326219
 20
111.259642
 30
0.0
 10
106.716047
 20
111.843060
 30
0.0
 10
106.716047
 20
112.490200
 30
0.0
  0
SPLINE
  5
139
100
AcDbEntity
  8
left
 62
7
100
AcDbSpline
 70
8
 71
3
 72
8
 73
4
 74
0
 40
0
 40
0
 40
0
 40
0
 40
1
 40
1
 40
1
 40
1
 10
106.716047
 20
112.490200
 30
0.0
 10
106.716047
 20
113.373856
 30
0.0
 10
105.999702
 20
114.090200
 30
0.0
 10
105.116047
 20
114.090200
 30
0.0
  0
LWPOLYLINE
  5
13a
100
AcDbEntity
  8
left
 62
7
100
AcDbPolyline
 90
1
 70
1
 10
39.521245
 20
114.090200
 30
0.0
  0
LWPOLYLINE
  5
13b
100
AcDbEntity
  8
left
 62
7
100
AcDbPolyline
 90
1
 70
1
 10
105.116047
 20
114.090200
 30
0.0
  0
LWPOLYLINE
  5
13c
100
AcDbEntity
  8
right
 62
7
100
AcDbPolyline
 90
30
 70
1
 10
245.832090
 20
116.983300
 30
0.0
 10
249.547990
 20
113.257400
 30
0.0
 10
249.542990
 20
61.672800
 30
0.0
 10
260.336490
 20
59.769600
 30
0.0
 10
257.245590
 20
42.240000
 30
0.0
 10
249.564090
 20
43.594500
 30
0.0
 10
249.564090
 20
41.123300
 30
0.0
 10
245.841990
 20
37.397400
 30
0.0
 10
217.440090
 20
37.400300
 30
0.0
 10
213.720130
 20
41.120300
 30
0.0
 10
208.720190
 20
41.120300
 30
0.0
 10
205.004430
 20
44.846200
 30
0.0
 10
202.436140
 20
44.846200
 30
0.0
 10
198.720240
 20
41.120300
 30
0.0
 10
193.720240
 20
41.120300
 30
0.0
 10
190.004440
 20
37.394500
 30
0.0
 10
185.664440
 20
37.394500
 30
0.0
 10
175.888340
 20
27.624503
 30
0.0
 10
171.548340
 20
27.624503
 30
0.0
 10
163.061440
 20
19.140803
 30
0.0
 10
163.061440
 20
14.790800
 30
0.0
 10
148.294340
 20
0.027200
 30
0.0
 10
134.895850
 20
13.425700
 30
0.0
 10
137.031100
 20
15.561700
 30
0.0
 10
137.040100
 20
30.320303
 30
0.0
 10
142.440090
 20
35.720300
 30
0.0
 10
142.440090
 20
39.170300
 30
0.0
 10
137.030100
 20
44.570300
 30
0.0
 10
136.992200
 20
113.267400
 30
0.0
 10
140.708090
 20
116.993300
 30
0.0
  0
LWPOLYLINE
  5
13d
100
AcDbEntity
  8
right
 62
7
100
AcDbPolyline
 90
4
 70
1
 10
201.970700
 20
97.812102
 30
0.0
 10
187.970700
 20
97.812102
 30
0.0
 10
187.970700
 20
83.812102
 30
0.0
 10
201.970700
 20
83.812102
 30
0.0
  0
LWPOLYLINE
  5
13e
100
AcDbEntity
  8
right
 62
7
100
AcDbPolyline
 90
4
 70
1
 10
222.977284
 20
104.021506
 30
0.0
 10
209.011387
 20
104.998097
 30
0.0
 10
208.034797
 20
91.032200
 30
0.0
 10
222.000693
 20
90.055610
 30
0.0
  0
LWPOLYLINE
  5
13f
100
AcDbEntity
  8
right
 62
7
100
AcDbPolyline
 90
4
 70
1
 10
221.791389
 20
87.062707
 30
0.0
 10
207.825492
 20
88.039297
 30
0.0
 10
206.848902
 20
74.073401
 30
0.0
 10
220.814799
 20
73.096810
 30
0.0
  0
LWPOLYLINE
  5
140
100
AcDbEntity
  8
right
 62
7
100
AcDbPolyline
 90
4
 70
1
 10
220.605484
 20
70.103903
 30
0.0
 10
206.639587
 20
71.080494
 30
0.0
 10
205.662997
 20
57.114597
 30
0.0
 10
219.628893
 20
56.138007
 30
0.0
  0
LWPOLYLINE
  5
141
100
AcDbEntity
  8
right
 62
7
100
AcDbPolyline
 90
4
 70
1
 10
243.879292
 20
87.644032
 30
0.0
 10
230.091983
 20
90.075107
 30
0.0
 10
227.660909
 20
76.287798
 30
0.0
 10
241.448217
 20
73.856724
 30
0.0
  0
LWPOLYLINE
  5
142
100
AcDbEntity
  8
right
 62
7
100
AcDbPolyline
 90
4
 70
1
 10
240.927287
 20
70.902034
 30
0.0
 10
227.139978
 20
73.333109
 30
0.0
 10
224.708904
 20
59.545800
 30
0.0
 10
238.496212
 20
57.114726
 30
0.0
  0
LWPOLYLINE
  5
143
100
AcDbEntity
  8
right
 62
7
100
AcDbPolyline
 90
4
 70
1
 10
237.975206
 20
54.160126
 30
0.0
 10
224.187898
 20
56.591201
 30
0.0
 10
221.756823
 20
42.803892
 30
0.0
 10
235.544132
 20
40.372818
 30
0.0
  0
LWPOLYLINE
  5
144
100
AcDbEntity
  8
right
 62
7
100
AcDbPolyline
 90
4
 70
1
 10
257.029298
 20
58.569027
 30
0.0
 10
243.241990
 20
61.000101
 30
0.0
 10
240.810915
 20
47.212793
 30
0.0
 10
254.598224
 20
44.781718
 30
0.0
  0
LWPOLYLINE
  5
145
100
AcDbEntity
  8
right
 62
7
100
AcDbPolyline
 90
4
 70
1
 10
201.970700
 20
80.811800
 30
0.0
 10
187.970700
 20
80.811800
 30
0.0
 10
187.970700
 20
66.811800
 30
0.0
 10
201.970700
 20
66.811800
 30
0.0
  0
LWPOLYLINE
  5
146
100
AcDbEntity
  8
right
 62
7
100
AcDbPolyline
 90
4
 70
1
 10
201.970700
 20
114.812300
 30
0.0
 10
187.970700
 20
114.812300
 30
0.0
 10
187.970700
 20
100.812300
 30
0.0
 10
201.970700
 20
100.812300
 30
0.0
  0
LWPOLYLINE
  5
147
100
AcDbEntity
  8
right
 62
7
100
AcDbPolyline
 90
4
 70
1
 10
183.970790
 20
106.375800
 30
0.0
 10
169.970790
 20
106.375800
 30
0.0
 10
169.970790
 20
92.375800
 30
0.0
 10
183.970790
 20
92.375800
 30
0.0
  0
LWPOLYLINE
  5
148
100
AcDbEntity
  8
right
 62
7
100
AcDbPolyline
 90
4
 70
1
 10
165.970790
 20
103.655701
 30
0.0
 10
151.970790
 20
103.655701
 30
0.0
 10
151.970790
 20
89.655701
 30
0.0
 10
165.970790
 20
89.655701
 30
0.0
  0
LWPOLYLINE
  5
149
100
AcDbEntity
  8
right
 62
7
100
AcDbPolyline
 90
4
 70
1
 10
183.970790
 20
89.375601
 30
0.0
 10
169.970790
 20
89.375601
 30
0.0
 10
169.970790
 20
75.375601
 30
0.0
 10
183.970790
 20
75.375601
 30
0.0
  0
LWPOLYLINE
  5
14a
100
AcDbEntity
  8
right
 62
7
100
AcDbPolyline
 90
4
 70
1
 10
183.970790
 20
72.375399
 30
0.0
 10
169.970790
 20
72.375399
 30
0.0
 10
169.970790
 20
58.375399
 30
0.0
 10
183.970790
 20
58.375399
 30
0.0
  0
LWPOLYLINE
  5
14b
100
AcDbEntity
  8
right
 62
7
100
AcDbPolyline
 90
4
 70
1
 10
165.970900
 20
86.570401
 30
0.0
 10
151.970900
 20
86.570401
 30
0.0
 10
151.970900
 20
72.570401
 30
0.0
 10
165.970900
 20
72.570401
 30
0.0
  0
LWPOLYLINE
  5
14c
100
AcDbEntity
  8
right
 62
7
100
AcDbPolyline
 90
4
 70
1
 10
165.970900
 20
69.570200
 30
0.0
 10
151.970900
 20
69.570200
 30
0.0
 10
151.970900
 20
55.570200
 30
0.0
 10
165.970900
 20
55.570200
 30
0.0
  0
LWPOLYLINE
  5
14d
100
AcDbEntity
  8
right
 62
7
100
AcDbPolyline
 90
4
 70
1
 10
175.375105
 20
53.262290
 30
0.0
 10
165.475610
 20
43.362795
 30
0.0
 10
175.375105
 20
33.463300
 30
0.0
 10
185.274600
 20
43.362795
 30
0.0
  0
LWPOLYLINE
  5
14e
100
AcDbEntity
  8
right
 62
7
100
AcDbPolyline
 90
4
 70
1
 10
159.156703
 20
41.880598
 30
0.0
 10
149.257209
 20
31.981103
 30
0.0
 10
159.156703
 20
22.081608
 30
0.0
 10
169.056198
 20
31.981103
 30
0.0
  0
SPLINE
  5
14f
100
AcDbEntity
  8
right
 62
7
100
AcDbSpline
 70
8
 71
3
 72
8
 73
4
 74
0
 40
0
 40
0
 40
0
 40
0
 40
1
 40
1
 40
1
 40
1
 10
142.021260
 20
28.410198
 30
0.0
 10
141.374120
 20
28.410198
 30
0.0
 10
140.790702
 20
28.020371
 30
0.0
 10
140.543053
 20
27.422491
 30
0.0
  0
SPLINE
  5
150
100
AcDbEntity
  8
right
 62
7
100
AcDbSpline
 70
8
 71
3
 72
8
 73
4
 74
0
 40
0
 40
0
 40
0
 40
0
 40
1
 40
1
 40
1
 40
1
 10
140.543053
 20
27.422491
 30
0.0
 10
140.295403
 20
26.824612
 30
0.0
 10
140.432292
 20
26.136424
 30
0.0
 10
140.889889
 20
25.678827
 30
0.0
  0
SPLINE
  5
151
100
AcDbEntity
  8
right
 62
7
100
AcDbSpline
 70
8
 71
3
 72
8
 73
4
 74
0
 40
0
 40
0
 40
0
 40
0
 40
1
 40
1
 40
1
 40
1
 10
140.889889
 20
25.678827
 30
0.0
 10
141.347486
 20
25.221230
 30
0.0
 10
142.035674
 20
25.084341
 30
0.0
 10
142.633553
 20
25.331991
 30
0.0
  0
SPLINE
  5
152
100
AcDbEntity
  8
right
 62
7
100
AcDbSpline
 70
8
 71
3
 72
8
 73
4
 74
0
 40
0
 40
0
 40
0
 40
0
 40
1
 40
1
 40
1
 40
1
 10
142.633553
 20
25.331991
 30
0.0
 10
143.231433
 20
25.579640
 30
0.0
 10
143.621260
 20
26.163058
 30
0.0
 10
143.621260
 20
26.810198
 30
0.0
  0
SPLINE
  5
153
100
AcDbEntity
  8
right
 62
7
100
AcDbSpline
 70
8
 71
3
 72
8
 73
4
 74
0
 40
0
 40
0
 40
0
 40
0
 40
1
 40
1
 40
1
 40
1
 10
143.621260
 20
26.810198
 30
0.0
 10
143.621260
 20
27.234544
 30
0.0
 10
143.452689
 20
27.641511
 30
0.0
 10
143.152631
 20
27.941569
 30
0.0
  0
SPLINE
  5
154
100
AcDbEntity
  8
right
 62
7
100
AcDbSpline
 70
8
 71
3
 72
8
 73
4
 74
0
 40
0
 40
0
 40
0
 40
0
 40
1
 40
1
 40
1
 40
1
 10
143.152631
 20
27.941569
 30
0.0
 10
142.852573
 20
28.241627
 30
0.0
 10
142.445606
 20
28.410198
 30
0.0
 10
142.021260
 20
28.410198
 30
0.0
  0
LWPOLYLINE
  5
155
100
AcDbEntity
  8
right
 62
7
100
AcDbPolyline
 90
4
 70
1
 10
149.194089
 20
24.285502
 30
0.0
 10
139.294594
 20
14.386007
 30
0.0
 10
149.194089
 20
4.486512
 30
0.0
 10
159.093584
 20
14.386007
 30
0.0
  0
SPLINE
  5
156
100
AcDbEntity
  8
right
 62
7
100
AcDbSpline
 70
8
 71
3
 72
8
 73
4
 74
0
 40
0
 40
0
 40
0
 40
0
 40
1
 40
1
 40
1
 40
1
 10
155.171247
 20
114.090200
 30
0.0
 10
154.524107
 20
114.090200
 30
0.0
 10
153.940689
 20
113.700373
 30
0.0
 10
153.693040
 20
113.102493
 30
0.0
  0
SPLINE
  5
157
100
AcDbEntity
  8
right
 62
7
100
AcDbSpline
 70
8
 71
3
 72
8
 73
4
 74
0
 40
0
 40
0
 40
0
 40
0
 40
1
 40
1
 40
1
 40
1
 10
153.693040
 20
113.102493
 30
0.0
 10
153.445390
 20
112.504614
 30
0.0
 10
153.582279
 20
111.816426
 30
0.0
 10
154.039876
 20
111.358829
 30
0.0
  0
SPLINE
  5
158
100
AcDbEntity
  8
right
 62
7
100
AcDbSpline
 70
8
 71
3
 72
8
 73
4
 74
0
 40
0
 40
0
 40
0
 40
0
 40
1
 40
1
 40
1
 40
1
 10
154.039876
 20
111.358829
 30
0.0
 10
154.497473
 20
110.901232
 30
0.0
 10
155.185661
 20
110.764343
 30
0.0
 10
155.783540
 20
111.011993
 30
0.0
  0
SPLINE
  5
159
100
AcDbEntity
  8
right
 62
7
100
AcDbSpline
 70
8
 71
3
 72
8
 73
4
 74
0
 40
0
 40
0
 40
0
 40
0
 40
1
 40
1
 40
1
 40
1
 10
155.783540
 20
111.011993
 30
0.0
 10
156.381419
 20
111.259642
 30
0.0
 10
156.771247
 20
111.843060
 30
0.0
 10
156.771247
 20
112.490200
 30
0.0
  0
SPLINE
  5
15a
100
AcDbEntity
  8
right
 62
7
100
AcDbSpline
 70
8
 71
3
 72
8
 73
4
 74
0
 40
0
 40
0
 40
0
 40
0
 40
1
 40
1
 40
1
 40
1
 10
156.771247
 20
112.490200
 30
0.0
 10
156.771247
 20
112.914546
 30
0.0
 10
156.602676
 20
113.321513
 30
0.0
 10
156.302618
 20
113.621571
 30
0.0
  0
SPLINE
  5
15b
100
AcDbEntity
  8
right
 62
7
100
AcDbSpline
 70
8
 71
3
 72
8
 73
4
 74
0
 40
0
 40
0
 40
0
 40
0
 40
1
 40
1
 40
1
 40
1
 10
156.302618
 20
113.621571
 30
0.0
 10
156.002560
 20
113.921629
 30
0.0
 10
155.595593
 20
114.090200
 30
0.0
 10
155.171247
 20
114.090200
 30
0.0
  0
LWPOLYLINE
  5
15c
100
AcDbEntity
  8
right
 62
7
100
AcDbPolyline
 90
1
 70
1
 10
142.021260
 20
28.410198
 30
0.0
  0
SPLINE
  5
15d
100
AcDbEntity
  8
right
 62
7
100
AcDbSpline
 70
8
 71
3
 72
8
 73
4
 74
0
 40
0
 40
0
 40
0
 40
0
 40
1
 40
1
 40
1
 40
1
 10
198.537247
 20
56.797402
 30
0.0
 10
197.890107
 20
56.797402
 30
0.0
 10
197.306689
 20
56.407575
 30
0.0
 10
197.059040
 20
55.809695
 30
0.0
  0
SPLINE
  5
15e
100
AcDbEntity
  8
right
 62
7
100
AcDbSpline
 70
8
 71
3
 72
8
 73
4
 74
0
 40
0
 40
0
 40
0
 40
0
 40
1
 40
1
 40
1
 40
1
 10
197.059040
 20
55.809695
 30
0.0
 10
196.811390
 20
55.211816
 30
0.0
 10
196.948279
 20
54.523628
 30
0.0
 10
197.405876
 20
54.066031
 30
0.0
  0
SPLINE
  5
15f
100
AcDbEntity
  8
right
 62
7
100
AcDbSpline
 70
8
 71
3
 72
8
 73
4
 74
0
 40
0
 40
0
 40
0
 40
0
 40
1
 40
1
 40
1
 40
1
 10
197.405876
 20
54.066031
 30
0.0
 10
197.863473
 20
53.608434
 30
0.0
 10
198.551661
 20
53.471545
 30
0.0
 10
199.149540
 20
53.719195
 30
0.0
  0
SPLINE
  5
160
100
AcDbEntity
  8
right
 62
7
100
AcDbSpline
 70
8
 71
3
 72
8
 73
4
 74
0
 40
0
 40
0
 40
0
 40
0
 40
1
 40
1
 40
1
 40
1
 10
199.149540
 20
53.719195
 30
0.0
 10
199.747419
 20
53.966844
 30
0.0
 10
200.137247
 20
54.550262
 30
0.0
 10
200.137247
 20
55.197402
 30
0.0
  0
SPLINE
  5
161
100
AcDbEntity
  8
right
 62
7
100
AcDbSpline
 70
8
 71
3
 72
8
 73
4
 74
0
 40
0
 40
0
 40
0
 40
0
 40
1
 40
1
 40
1
 40
1
 10
200.137247
 20
55.197402
 30
0.0
 10
200.137247
 20
55.621748
 30
0.0
 10
199.968676
 20
56.028715
 30
0.0
 10
199.668618
 20
56.328773
 30
0.0
  0
SPLINE
  5
162
100
AcDbEntity
  8
right
 62
7
100
AcDbSpline
 70
8
 71
3
 72
8
 73
4
 74
0
 40
0
 40
0
 40
0
 40
0
 40
1
 40
1
 40
1
 40
1
 10
199.668618
 20
56.328773
 30
0.0
 10
199.368560
 20
56.628831
 30
0.0
 10
198.961593
 20
56.797402
 30
0.0
 10
198.537247
 20
56.797402
 30
0.0
  0
LWPOLYLINE
  5
163
100
AcDbEntity
  8
right
 62
7
100
AcDbPolyline
 90
1
 70
1
 10
155.171247
 20
114.090200
 30
0.0
  0
SPLINE
  5
164
100
AcDbEntity
  8
right
 62
7
100
AcDbSpline
 70
8
 71
3
 72
8
 73
4
 74
0
 40
0
 40
0
 40
0
 40
0
 40
1
 40
1
 40
1
 40
1
 10
145.021257
 20
45.910198
 30
0.0
 10
144.374117
 20
45.910198
 30
0.0
 10
143.790699
 20
45.520371
 30
0.0
 10
143.543050
 20
44.922491
 30
0.0
  0
SPLINE
  5
165
100
AcDbEntity
  8
right
 62
7
100
AcDbSpline
 70
8
 71
3
 72
8
 73
4
 74
0
 40
0
 40
0
 40
0
 40
0
 40
1
 40
1
 40
1
 40
1
 10
143.543050
 20
44.922491
 30
0.0
 10
143.295400
 20
44.324612
 30
0.0
 10
143.432289
 20
43.636424
 30
0.0
 10
143.889886
 20
43.178827
 30
0.0
  0
SPLINE
  5
166
100
AcDbEntity
  8
right
 62
7
100
AcDbSpline
 70
8
 71
3
 72
8
 73
4
 74
0
 40
0
 40
0
 40
0
 40
0
 40
1
 40
1
 40
1
 40
1
 10
143.889886
 20
43.178827
 30
0.0
 10
144.347483
 20
42.721230
 30
0.0
 10
145.035671
 20
42.584341
 30
0.0
 10
145.633550
 20
42.831991
 30
0.0
  0
SPLINE
  5
167
100
AcDbEntity
  8
right
 62
7
100
AcDbSpline
 70
8
 71
3
 72
8
 73
4
 74
0
 40
0
 40
0
 40
0
 40
0
 40
1
 40
1
 40
1
 40
1
 10
145.633550
 20
42.831991
 30
0.0
 10
146.231429
 20
43.079640
 30
0.0
 10
146.621257
 20
43.663058
 30
0.0
 10
146.621257
 20
44.310198
 30
0.0
  0
SPLINE
  5
168
100
AcDbEntity
  8
right
 62
7
100
AcDbSpline
 70
8
 71
3
 72
8
 73
4
 74
0
 40
0
 40
0
 40
0
 40
0
 40
1
 40
1
 40
1
 40
1
 10
146.621257
 20
44.310198
 30
0.0
 10
146.621257
 20
44.734544
 30
0.0
 10
146.452686
 20
45.141511
 30
0.0
 10
146.152628
 20
45.441569
 30
0.0
  0
SPLINE
  5
169
100
AcDbEntity
  8
right
 62
7
100
AcDbSpline
 70
8
 71
3
 72
8
 73
4
 74
0
 40
0
 40
0
 40
0
 40
0
 40
1
 40
1
 40
1
 40
1
 10
146.152628
 20
45.441569
 30
0.0
 10
145.852570
 20
45.741627
 30
0.0
 10
145.445603
 20
45.910198
 30
0.0
 10
145.021257
 20
45.910198
 30
0.0
  0
LWPOLYLINE
  5
16a
100
AcDbEntity
  8
right
 62
7
100
AcDbPolyline
 90
1
 70
1
 10
198.537247
 20
56.797402
 30
0.0
  0
SPLINE
  5
16b
100
AcDbEntity
  8
right
 62
7
100
AcDbSpline
 70
8
 71
3
 72
8
 73
4
 74
0
 40
0
 40
0
 40
0
 40
0
 40
1
 40
1
 40
1
 40
1
 10
221.911257
 20
114.080200
 30
0.0
 10
221.264117
 20
114.080200
 30
0.0
 10
220.680699
 20
113.690372
 30
0.0
 10
220.433050
 20
113.092493
 30
0.0
  0
SPLINE
  5
16c
100
AcDbEntity
  8
right
 62
7
100
AcDbSpline
 70
8
 71
3
 72
8
 73
4
 74
0
 40
0
 40
0
 40
0
 40
0
 40
1
 40
1
 40
1
 40
1
 10
220.433050
 20
113.092493
 30
0.0
 10
220.185400
 20
112.494614
 30
0.0
 10
220.322289
 20
111.806426
 30
0.0
 10
220.779886
 20
111.348829
 30
0.0
  0
SPLINE
  5
16d
100
AcDbEntity
  8
right
 62
7
100
AcDbSpline
 70
8
 71
3
 72
8
 73
4
 74
0
 40
0
 40
0
 40
0
 40
0
 40
1
 40
1
 40
1
 40
1
 10
220.779886
 20
111.348829
 30
0.0
 10
221.237483
 20
110.891232
 30
0.0
 10
221.925671
 20
110.754343
 30
0.0
 10
222.523550
 20
111.001993
 30
0.0
  0
SPLINE
  5
16e
100
AcDbEntity
  8
right
 62
7
100
AcDbSpline
 70
8
 71
3
 72
8
 73
4
 74
0
 40
0
 40
0
 40
0
 40
0
 40
1
 40
1
 40
1
 40
1
 10
222.523550
 20
111.001993
 30
0.0
 10
223.121429
 20
111.249642
 30
0.0
 10
223.511257
 20
111.833060
 30
0.0
 10
223.511257
 20
112.480200
 30
0.0
  0
SPLINE
  5
16f
100
AcDbEntity
  8
right
 62
7
100
AcDbSpline
 70
8
 71
3
 72
8
 73
4
 74
0
 40
0
 40
0
 40
0
 40
0
 40
1
 40
1
 40
1
 40
1
 10
223.511257
 20
112.480200
 30
0.0
 10
223.511257
 20
113.363855
 30
0.0
 10
222.794912
 20
114.080200
 30
0.0
 10
221.911257
 20
114.080200
 30
0.0
  0
LWPOLYLINE
  5
170
100
AcDbEntity
  8
right
 62
7
100
AcDbPolyline
 90
1
 70
1
 10
145.021257
 20
45.910198
 30
0.0
  0
SPLINE
  5
171
100
AcDbEntity
  8
right
 62
7
100
AcDbSpline
 70
8
 71
3
 72
8
 73
4
 74
0
 40
0
 40
0
 40
0
 40
0
 40
1
 40
1
 40
1
 40
1
 10
243.151247
 20
43.500202
 30
0.0
 10
242.504107
 20
43.500202
 30
0.0
 10
241.920689
 20
43.110375
 30
0.0
 10
241.673040
 20
42.512495
 30
0.0
  0
SPLINE
  5
172
100
AcDbEntity
  8
right
 62
7
100
AcDbSpline
 70
8
 71
3
 72
8
 73
4
 74
0
 40
0
 40
0
 40
0
 40
0
 40
1
 40
1
 40
1
 40
1
 10
241.673040
 20
42.512495
 30
0.0
 10
241.425390
 20
41.914616
 30
0.0
 10
241.562279
 20
41.226428
 30
0.0
 10
242.019876
 20
40.768831
 30
0.0
  0
SPLINE
  5
173
100
AcDbEntity
  8
right
 62
7
100
AcDbSpline
 70
8
 71
3
 72
8
 73
4
 74
0
 40
0
 40
0
 40
0
 40
0
 40
1
 40
1
 40
1
 40
1
 10
242.019876
 20
40.768831
 30
0.0
 10
242.477473
 20
40.311234
 30
0.0
 10
243.165661
 20
40.174345
 30
0.0
 10
243.763540
 20
40.421995
 30
0.0
  0
SPLINE
  5
174
100
AcDbEntity
  8
right
 62
7
100
AcDbSpline
 70
8
 71
3
 72
8
 73
4
 74
0
 40
0
 40
0
 40
0
 40
0
 40
1
 40
1
 40
1
 40
1
 10
243.763540
 20
40.421995
 30
0.0
 10
244.361419
 20
40.669644
 30
0.0
 10
244.751247
 20
41.253062
 30
0.0
 10
244.751247
 20
41.900202
 30
0.0
  0
SPLINE
  5
175
100
AcDbEntity
  8
right
 62
7
100
AcDbSpline
 70
8
 71
3
 72
8
 73
4
 74
0
 40
0
 40
0
 40
0
 40
0
 40
1
 40
1
 40
1
 40
1
 10
244.751247
 20
41.900202
 30
0.0
 10
244.751247
 20
42.324548
 30
0.0
 10
244.582676
 20
42.731515
 30
0.0
 10
244.282618
 20
43.031573
 30
0.0
  0
SPLINE
  5
176
100
AcDbEntity
  8
right
 62
7
100
AcDbSpline
 70
8
 71
3
 72
8
 73
4
 74
0
 40
0
 40
0
 40
0
 40
0
 40
1
 40
1
 40
1
 40
1
 10
244.282618
 20
43.031573
 30
0.0
 10
243.982560
 20
43.331631
 30
0.0
 10
243.575593
 20
43.500202
 30
0.0
 10
243.151247
 20
43.500202
 30
0.0
  0
LWPOLYLINE
  5
177
100
AcDbEntity
  8
right
 62
7
100
AcDbPolyline
 90
1
 70
1
 10
221.911257
 20
114.080200
 30
0.0
  0
LWPOLYLINE
  5
178
100
AcDbEntity
  8
right
 62
7
100
AcDbPolyline
 90
1
 70
1
 10
243.151247
 20
43.500202
 30
0.0
  0
ENDSEC
  0
SECTION
  2
OBJECTS
  0
DICTIONARY
  5
C
330
0
100
AcDbDictionary
  3
ACAD_GROUP
350
D
  3
ACAD_MLINESTYLE
350
17
  0
DICTIONARY
  5
D
330
C
100
AcDbDictionary
  0
DICTIONARY
  5
1A
330
C
100
AcDbDictionary
  0
DICTIONARY
  5
17
330
C
100
AcDbDictionary
  3
STANDARD
350
18
  0
DICTIONARY
  5
19
330
C
100
AcDbDictionary
  0
ENDSEC
  0
EOF
