<?xml version="1.0" encoding="UTF-8" standalone="no"?>
<svg
   version="1.1"
   width="299.9740mm"
   height="199.9996mm"
   viewBox="0.0000 0.0000 299.9740 199.9996"
   id="svg1652"
   sodipodi:docname="fabiTEM_0-4-Edge_Cuts_right.svg"
   inkscape:version="1.3.2 (091e20ef0f, 2023-11-25, custom)"
   xmlns:inkscape="http://www.inkscape.org/namespaces/inkscape"
   xmlns:sodipodi="http://sodipodi.sourceforge.net/DTD/sodipodi-0.dtd"
   xmlns="http://www.w3.org/2000/svg"
   xmlns:svg="http://www.w3.org/2000/svg"
   xmlns:rdf="http://www.w3.org/1999/02/22-rdf-syntax-ns#"
   xmlns:cc="http://creativecommons.org/ns#"
   xmlns:dc="http://purl.org/dc/elements/1.1/">
  <defs
     id="defs1652" />
  <sodipodi:namedview
     id="namedview1652"
     pagecolor="#ffffff"
     bordercolor="#000000"
     borderopacity="0.25"
     inkscape:showpageshadow="2"
     inkscape:pageopacity="0.0"
     inkscape:pagecheckerboard="0"
     inkscape:deskcolor="#d1d1d1"
     inkscape:document-units="mm"
     inkscape:zoom="1.3706537"
     inkscape:cx="676.31962"
     inkscape:cy="379.74581"
     inkscape:window-width="1914"
     inkscape:window-height="1145"
     inkscape:window-x="3"
     inkscape:window-y="27"
     inkscape:window-maximized="1"
     inkscape:current-layer="svg1652" />
  <title
     id="title1">SVG Image created as fabiTEM_0-4-Edge_Cuts.svg date 2024/05/28 15:06:37 </title>
  <desc
     id="desc1">Image generated by PCBNEW </desc>
  <g
     style="fill:#000000; fill-opacity:1.0000;stroke:#000000; stroke-opacity:1.0000; stroke-linecap:round; stroke-linejoin:round;"
     transform="translate(0 0) scale(1 1)"
     id="g1" />
  <g
     style="fill:none;  stroke:#000000; stroke-width:0.3000; stroke-opacity:1;  stroke-linecap:round; stroke-linejoin:round;"
     id="g1233">
    <text
       x="180.9990"
       y="170.7500"
       textLength="0.9000"
       font-size="2.0000"
       lengthAdjust="spacingAndGlyphs"
       text-anchor="start"
       opacity="0"
       id="text1231" />
    <g
       class="stroked-text"
       id="g1232">
      <desc
         id="desc1231" />
    </g>
  </g>
  <g
     style="fill:none;  stroke:#000000; stroke-width:0.1500; stroke-opacity:1;  stroke-linecap:round; stroke-linejoin:round;"
     id="g1401">
    <text
       x="180.9990"
       y="164.7500"
       textLength="0.4500"
       font-size="2.0000"
       lengthAdjust="spacingAndGlyphs"
       text-anchor="start"
       opacity="0"
       id="text1399" />
    <g
       class="stroked-text"
       id="g1400">
      <desc
         id="desc1399" />
    </g>
  </g>
  <g
     style="fill:none;  stroke:#000000; stroke-width:0.1500; stroke-opacity:1;  stroke-linecap:round; stroke-linejoin:round;"
     id="g1403">
    <text
       x="180.9990"
       y="161.7500"
       textLength="0.4500"
       font-size="2.0000"
       lengthAdjust="spacingAndGlyphs"
       text-anchor="start"
       opacity="0"
       id="text1401" />
    <g
       class="stroked-text"
       id="g1402">
      <desc
         id="desc1401" />
    </g>
  </g>
  <g
     style="fill:none;  stroke:#000000; stroke-width:0.1500; stroke-opacity:1;  stroke-linecap:round; stroke-linejoin:round;"
     id="g1405">
    <text
       x="180.9990"
       y="158.7500"
       textLength="0.4500"
       font-size="2.0000"
       lengthAdjust="spacingAndGlyphs"
       text-anchor="start"
       opacity="0"
       id="text1403" />
    <g
       class="stroked-text"
       id="g1404">
      <desc
         id="desc1403" />
    </g>
  </g>
  <path
     d="m 156.613,74.1438 c -0.01,-2.260591 -0.0234,-4.52119 -0.0254,-6.7818 0,-1.164327 -0.94387,-2.1082 -2.1082,-2.1082 l 0.0508,-18.8468 50.9524,-0.0254 0.006,-1.1816 0.2349,-0.2395 h 18.1476 l 0.3575,0.4095 -0.009,0.8925 c -5e-5,1.164327 0.94382,2.1082 2.10833,2.1082 l 20.56457,0.0096 c 1.16433,0 2.1082,0.943873 2.1082,2.1082 l -0.0158,17.5926 c 0,1.164327 0.94387,2.1082 2.1082,2.1082 l 16.0686,0.0096 c 1.16433,0 2.1082,0.943873 2.1082,2.1082 l -0.0236,28.0072 10.3227,1.8357 0.31,0.42 -2.9,16.37 -0.53,0.41 -7.2097,-1.2663 0.005,4.4296 c 10e-5,1.16433 -0.94377,2.1082 -2.1081,2.1082 l -24.8491,-0.008 -9.5504,-9.90595 -22.5377,-0.008 c -1.16433,5e-5 -2.1082,0.94392 -2.1082,2.10825 l 0.008,4.4529 -16.53545,9.3599 -9.2964,9.3726 -0.0189,8.2231 -13.9511,13.8495 -13.39997,-13.39695 9.97102,-9.97095 -0.0254,-10.9728 3.6322,-3.6349 0.008,-5.5297 c -5e-5,-1.16433 -0.94392,-2.1082 -2.10825,-2.1082 l -7.6866,0.0158 c -1.16433,0 -2.1082,-0.94387 -2.1082,-2.1082 l 0.008,-2.0653 0.0253,-6.0198 v -32.131"
     id="path1420"
     style="fill:#444444;stroke:#000000;stroke-width:0.1;stroke-linecap:round;stroke-linejoin:round;stroke-opacity:1;fill-opacity:1"
     sodipodi:nodetypes="ccccccccccccccccccccccccccccccccccccccccccccc" />
  <metadata
     id="metadata1652">
    <rdf:RDF>
      <cc:Work
         rdf:about="">
        <dc:title>SVG Image created as fabiTEM_0-4-Edge_Cuts.svg date 2024/05/28 15:06:37 </dc:title>
      </cc:Work>
    </rdf:RDF>
  </metadata>
</svg>
